<?xml version="1.0" standalone="no"?>
<!DOCTYPE svg PUBLIC "-//W3C//DTD SVG 1.1//EN" "http://www.w3.org/Graphics/SVG/1.1/DTD/svg11.dtd" >
<svg xmlns="http://www.w3.org/2000/svg" xmlns:xlink="http://www.w3.org/1999/xlink" version="1.1">
<metadata>
Created by FontForge 20170731 at Tue Jul 18 12:20:19 2023
 By Aleksey,,,
Daniyar Shape
</metadata>
<defs>
<font id="VetrinoRegular" horiz-adv-x="1404" >
  <font-face 
    font-family="Vetrino"
    font-weight="400"
    font-stretch="normal"
    units-per-em="2048"
    panose-1="0 0 0 0 0 0 0 0 0 0"
    ascent="1638"
    descent="-410"
    x-height="1153"
    cap-height="1506"
    bbox="-180 -448.08 2310 1858"
    underline-thickness="102"
    underline-position="-307"
    unicode-range="U+000A-F000"
  />
<missing-glyph horiz-adv-x="1079" 
d="M102 1434h875v-1434h-875v1434zM160 1393l379 -633l381 633h-760zM514 717l-369 614v-1231zM541 674l-379 -631h758zM565 717l371 -621v1239z" />
    <glyph glyph-name=".notdef" horiz-adv-x="1079" 
d="M102 1434h875v-1434h-875v1434zM160 1393l379 -633l381 633h-760zM514 717l-369 614v-1231zM541 674l-379 -631h758zM565 717l371 -621v1239z" />
    <glyph glyph-name=".null" horiz-adv-x="0" 
 />
    <glyph glyph-name=".null" horiz-adv-x="0" 
 />
    <glyph glyph-name="nonmarkingreturn" horiz-adv-x="682" 
 />
    <glyph glyph-name="controlLF" unicode="&#xa;" horiz-adv-x="0" 
 />
    <glyph glyph-name="controlCR" unicode="&#xd;" horiz-adv-x="0" 
 />
    <glyph glyph-name="space" unicode=" " horiz-adv-x="675" 
 />
    <glyph glyph-name="exclam" unicode="!" horiz-adv-x="499" 
d="M250 0q-40 0 -68 28t-28 68t28 68t68 28t68 -28t28 -68t-28 -68t-68 -28zM314 417l-128 -33l-32 1090l192 32z" />
    <glyph glyph-name="quotedbl" unicode="&#x22;" horiz-adv-x="698" 
d="M494 1506q40 0 68 -28t28 -68q0 -100 -49.5 -162t-142.5 -62v32q43 0 66 22t28 74q-40 0 -67.5 28.5t-27.5 68.5t28.5 67.5t68.5 27.5zM205 1506q40 0 68 -28t28 -68q0 -100 -49.5 -162t-142.5 -62v32q43 0 66.5 22t28.5 74q-40 0 -67.5 28.5t-27.5 68.5t28 67.5t68 27.5
z" />
    <glyph glyph-name="numbersign" unicode="#" horiz-adv-x="1703" 
d="M1573 993h-356l-56 -448h348v-128h-365l-52 -417h-128l52 417h-416l-52 -417h-129l52 417h-340v128h356l57 448h-349v128h365l52 417h128l-52 -417h416l52 417h129l-53 -417h341v-128zM1032 545l56 448h-416l-56 -448h416z" />
    <glyph glyph-name="dollar" unicode="$" horiz-adv-x="1533" 
d="M1393 423q0 -95 -23.5 -166t-68.5 -119t-116.5 -77.5t-160.5 -43.5t-208 -16v-225l-192 -32v265q-78 9 -146 27.5t-115.5 40.5t-87 47t-63 48.5t-40 42t-22.5 29.5l-7 12l84 96q3 -7 10 -18.5t31.5 -44.5t53 -63.5t76 -67t99 -63.5t123 -45t148.5 -18q106 0 190 30.5
t136.5 84t79.5 122.5t27 148q0 151 -123 251t-326 133q-28 5 -81 11t-96 11t-99.5 16t-100.5 24.5t-89.5 36.5t-75 52t-48.5 72.5t-19 96.5q0 185 122.5 274t358.5 106v229l192 32v-258q153 -6 292 -39t221 -89l-96 -127q-56 84 -144 137t-169 70.5t-168 17.5
q-187 0 -301.5 -98t-114.5 -255q0 -54 16.5 -96.5t47.5 -70.5t69.5 -48t89 -32.5t100.5 -21.5t108 -17q4 0 6 -0.5t5 -1t6 -0.5q43 -6 87.5 -15t107 -26t117 -38.5t110.5 -54.5t96 -71.5t65.5 -91.5t25.5 -113z" />
    <glyph glyph-name="percent" unicode="%" horiz-adv-x="2121" 
d="M1573 833q182 0 299 -108t117 -308t-117 -308.5t-299 -108.5t-299.5 108.5t-117.5 308.5t117.5 308t299.5 108zM1619 23q66 0 113.5 34.5t72 94t35 124.5t10.5 141q0 99 -30.5 177.5t-79.5 124t-104 68.5t-110 23q-66 0 -113.5 -34.5t-72 -94t-35 -124t-10.5 -140.5
q0 -80 20.5 -147.5t53.5 -112t76 -75.5t87 -45t87 -14zM964 1089q0 -200 -117 -308t-299 -108t-299.5 108t-117.5 308t117.5 308.5t299.5 108.5t299 -108.5t117 -308.5zM270 1089q0 -99 30.5 -177.5t79.5 -124t104 -68.5t110 -23q66 0 113.5 34.5t72 94t35 124t10.5 140.5
q0 80 -20.5 147.5t-53.5 112t-76 75.5t-87 45t-87 14q-66 0 -113.5 -34.5t-72 -94t-35 -124.5t-10.5 -141zM1480 1506h160l-1000 -1500h-160z" />
    <glyph glyph-name="ampersand" unicode="&#x26;" horiz-adv-x="1636" 
d="M1507 641q-49 -257 -234 -445q60 -45 118.5 -86t86.5 -60l29 -18l-32 -32q-101 63 -240 162q-212 -171 -481 -162q-625 0 -625 391q0 77 37 144.5t100 116.5t130 82.5t143 58.5q-154 206 -154 361q0 162 111 257t274 95q92 0 165.5 -21.5t119.5 -56t76.5 -81.5
t42.5 -94.5t12 -98.5q0 -69 -42.5 -131t-110 -106t-144 -73.5t-151.5 -42.5q-15 -2 -43 -8q153 -253 492 -528q41 60 72.5 134.5t47.5 137t26 116.5t12 85l2 31zM578 1154q6 -173 97 -326q23 4 31 5q65 9 116 33.5t82.5 56.5t52.5 72.5t29 79t8 79.5q0 63 -5 108t-19 87
t-38.5 68t-65 41.5t-96.5 15.5q-109 0 -150.5 -81t-41.5 -239zM754 32q117 -3 222.5 47t177.5 142q-381 283 -582 530q-119 -56 -185 -151.5t-66 -214.5q0 -162 110.5 -257.5t322.5 -95.5z" />
    <glyph glyph-name="parenleft" unicode="(" horiz-adv-x="692" 
d="M344 609q0 -146 16 -279t41.5 -230t56 -180.5t61 -138t56 -93t41.5 -55.5l16 -17l-96 -32q-8 7 -22 19.5t-53.5 59t-76 100.5t-81 143.5t-76 187.5t-53.5 233.5t-22 281.5t21 279t55 230t75 180.5t82 138t75 93t55 55.5l21 17l96 32q-12 -22 -31.5 -61t-69 -157.5
t-87.5 -235t-69 -275.5t-31 -296z" />
    <glyph glyph-name="parenright" unicode=")" horiz-adv-x="681" 
d="M145 1634q8 -7 22 -19.5t54 -59t76 -100.5t80.5 -143.5t76.5 -187.5t54 -233.5t22 -281.5q0 -114 -13 -221.5t-35.5 -192t-51.5 -161t-61 -133.5t-63.5 -105.5t-60.5 -81t-51.5 -55t-35.5 -33.5l-13 -10l-96 -32q12 22 31.5 61t69 157.5t87.5 235t69 275.5t31 296
q0 146 -16 279t-41.5 230t-56 180.5t-61 138t-56 93t-41.5 55.5l-16 17z" />
    <glyph glyph-name="asterisk" unicode="*" horiz-adv-x="1054" 
d="M934 1342l-259 -124l204 -94l-41 -198l-237 162l21 -223l-193 -64l22 286l-183 -129l-151 134l259 124l-204 94l41 199l237 -162l-21 223l193 64l-22 -286l183 129z" />
    <glyph glyph-name="plus" unicode="+" horiz-adv-x="1187" 
d="M1074 833v-128h-417v-417h-128v417h-416v128h416v416h128v-416h417z" />
    <glyph glyph-name="comma" unicode="," horiz-adv-x="387" 
d="M193 192q40 0 68 -28t28 -68q0 -100 -49.5 -162t-142.5 -62v32q43 0 66.5 22t28.5 74q-40 0 -68 28.5t-28 68.5t28.5 67.5t68.5 27.5z" />
    <glyph glyph-name="hyphen" unicode="-" horiz-adv-x="753" 
d="M665 553h-577v128h577v-128z" />
    <glyph glyph-name="period" unicode="." horiz-adv-x="380" 
d="M190 0q-40 0 -68 28t-28 68t28 68t68 28t68 -28t28 -68t-28 -68t-68 -28z" />
    <glyph glyph-name="slash" unicode="/" horiz-adv-x="964" 
d="M795 1826l193 32l-769 -2050l-192 -32z" />
    <glyph glyph-name="zero" unicode="0" horiz-adv-x="1636" 
d="M818 1506q159 0 281.5 -43.5t211 -132t134.5 -230t46 -331.5q0 -188 -51 -336t-142 -241.5t-212.5 -142.5t-267.5 -49q-318 0 -495.5 195.5t-177.5 573.5q0 188 50.5 331t142.5 230.5t212.5 131.5t267.5 44zM882 32q86 0 153.5 29.5t112 84t75 122t47 154.5t23 169
t6.5 178q0 150 -29 270t-79.5 200t-120.5 134t-148.5 77.5t-167.5 23.5q-93 0 -166 -40t-119 -106.5t-76.5 -159t-42.5 -190.5t-12 -209q0 -186 44 -330.5t120.5 -231.5t172.5 -131t207 -44z" />
    <glyph glyph-name="one" unicode="1" horiz-adv-x="700" 
d="M343 1474l192 32v-1474l-192 -32v1420l-204 -171l-20 25l224 188v12z" />
    <glyph glyph-name="two" unicode="2" horiz-adv-x="1329" 
d="M986 64v128l192 32v-192l-192 -32v32h-865v32q11 4 30.5 10.5t78.5 32t116 55.5t135 80t145 105.5t135 133t116 161.5t78.5 192t30.5 223q0 117 -30.5 200t-88.5 129.5t-130.5 67t-167.5 20.5q-78 0 -146.5 -26.5t-110 -64t-72 -75.5t-42.5 -64l-13 -27l-42 84
q2 4 6.5 11.5t22.5 29t40 40.5t61 43t83.5 41t108.5 28.5t136 11.5q99 0 184.5 -15.5t158.5 -50.5t124.5 -86.5t80.5 -127t29 -169.5q0 -98 -32 -194.5t-85.5 -177t-123 -156.5t-147 -137t-154.5 -114.5t-146.5 -92t-123 -66t-85.5 -41.5l-32 -14h737z" />
    <glyph glyph-name="three" unicode="3" horiz-adv-x="1503" 
d="M725 961q136 0 250 -28.5t202.5 -85.5t138.5 -150.5t50 -215.5q0 -121 -58 -215.5t-158 -151t-224 -85.5t-265 -29q-108 0 -204 17t-155.5 41.5t-103.5 49.5t-62 42l-19 17l42 84q100 -101 230 -157.5t272 -61.5q94 0 174 26.5t135.5 71t95 103t58 121.5t18.5 127
q0 213 -103.5 330.5t-313.5 117.5q-198 5 -384 -32v32l767 513h-607v-128l-192 -33v193l192 32v-32h673v-32h-8l-747 -499q153 19 306 18z" />
    <glyph glyph-name="four" unicode="4" horiz-adv-x="1339" 
d="M1196 481v-32h-64v-417l-193 -32v449h-833v32q128 70 244 213.5t201 323.5t144.5 380.5t83.5 395.5l160 -96q-49 -185 -115.5 -355t-159.5 -340t-220 -307t-273 -215h768v640l193 32v-672h64z" />
    <glyph glyph-name="five" unicode="5" horiz-adv-x="1509" 
d="M667 961q137 0 260 -28.5t224 -85t161 -151t60 -215.5t-58 -215.5t-158 -151t-224 -85.5t-265 -29q-108 0 -204 17t-155.5 41.5t-103.5 49.5t-62 42l-19 17l42 84q100 -101 230 -157.5t272 -61.5q94 0 174 26.5t135.5 71t95 103t58 121.5t18.5 127q0 205 -132 326.5
t-349 121.5q-198 5 -384 -32h-32l96 577h641l192 32v-192l-192 -33v161h-614l-85 -512q192 35 378 31z" />
    <glyph glyph-name="six" unicode="6" horiz-adv-x="1603" 
d="M818 961q190 0 332.5 -52.5t225.5 -162t83 -265.5t-83 -266t-225.5 -162.5t-332.5 -52.5q-119 0 -218 24t-184.5 79t-144.5 139t-92.5 209.5t-33.5 285.5q0 167 43.5 301t114.5 220t168 143t199 81t212 24q85 0 159 -9t125 -23t92.5 -31t66 -34t41 -31t22.5 -23l7 -9
l-64 -97q0 5 -1 13t-10 31.5t-24 44.5t-49 47t-79.5 44.5t-119.5 31.5t-166 13q-142 0 -238 -31t-164.5 -106t-102 -202.5t-38.5 -319.5q61 31 100 49t107 44.5t136 39.5t136 13zM882 32q87 0 155 26.5t110.5 69.5t70 103t38.5 121t11 129q0 115 -43 204t-114 140.5
t-153.5 77.5t-170.5 26q-127 3 -243.5 -44.5t-204.5 -138.5v-9q0 -127 17 -230.5t45.5 -176t71 -126.5t88.5 -86.5t102.5 -52t108 -26.5t111.5 -7z" />
    <glyph glyph-name="seven" unicode="7" horiz-adv-x="1400" 
d="M1298 1474l-475 -993h91v-32h-106l-215 -449l-192 32l204 417h-268v32h283l470 961h-785v-128l-192 -33v193l192 32v-32h993z" />
    <glyph glyph-name="eight" unicode="8" horiz-adv-x="1583" 
d="M951 918q109 -15 199 -51t157.5 -91.5t104.5 -135t37 -175.5q0 -113 -51 -203t-141 -146.5t-208 -86t-257 -29.5t-257 29.5t-208 86t-141 146.5t-51 203q0 186 130 300.5t348 149.5q-128 29 -207 102.5t-79 183.5q0 97 65 168t165 104t219 33q88 0 167.5 -19.5
t142.5 -56.5t100.5 -96t37.5 -133q0 -108 -75 -180t-198 -103zM488 1201q0 -58 21.5 -106t56 -78t79 -50.5t89 -29t88.5 -8.5q67 0 115.5 23t75 63t39 86t12.5 100q0 72 -32 127.5t-83.5 85.5t-107 45t-111.5 15q-67 0 -115.5 -23t-75 -63.5t-39 -86.5t-12.5 -100zM865 32
q85 0 153 25.5t111.5 67.5t73 99t42 116.5t12.5 124.5q0 89 -35 163.5t-91 123t-128 82.5t-143.5 48.5t-140.5 14.5q-105 0 -183.5 -38t-122 -101.5t-64.5 -137t-21 -155.5q0 -89 35 -163.5t91 -123t127.5 -82.5t143 -49t140.5 -15z" />
    <glyph glyph-name="nine" unicode="9" horiz-adv-x="1603" 
d="M784 1506q119 0 218 -24t184.5 -79t144.5 -139t92.5 -209.5t33.5 -285.5q0 -167 -43.5 -301t-114.5 -220t-168 -143t-199 -81t-212 -24q-85 0 -159 9t-125 23t-92.5 31t-66 34t-41 31t-22.5 23l-7 9l65 96q0 -5 1 -13t9.5 -31t24 -44.5t49 -47t79 -44.5t119.5 -31.5
t166 -12.5q142 0 238 31t164.5 106.5t101.5 202.5t39 319q-64 -32 -101.5 -49.5t-106 -44t-136 -39.5t-135.5 -13q-190 0 -332.5 52.5t-225.5 162t-83 265.5t83 266t225.5 162.5t332.5 52.5zM816 577q127 -3 244 44.5t205 138.5v9q0 127 -17 230.5t-46 176t-71.5 126.5
t-88 86.5t-102.5 52t-108.5 26.5t-111.5 7q-87 0 -154.5 -26.5t-110 -69.5t-70 -103t-38.5 -121t-11 -129q0 -93 28.5 -169.5t76 -127t110 -85.5t129.5 -50.5t136 -15.5z" />
    <glyph glyph-name="colon" unicode=":" horiz-adv-x="417" 
d="M209 0q-40 0 -68 28t-28 68t28 68t68 28t68 -28t28 -68t-28 -68t-68 -28zM209 961q-40 0 -68 28t-28 68t28 68t68 28t68 -28t28 -68t-28 -68t-68 -28z" />
    <glyph glyph-name="semicolon" unicode=";" horiz-adv-x="423" 
d="M212 961q-40 0 -68.5 28t-28.5 68t28.5 68t68.5 28t68 -28t28 -68t-28 -68t-68 -28zM212 192q40 0 68 -28t28 -68q0 -100 -50 -162t-143 -62v32q43 0 66.5 22t28.5 74q-40 0 -67.5 28.5t-27.5 68.5t28.5 67.5t68.5 27.5z" />
    <glyph glyph-name="less" unicode="&#x3c;" horiz-adv-x="1208" 
d="M1082 1185v-128l-769 -288l769 -288v-129l-961 321v192z" />
    <glyph glyph-name="equal" unicode="=" horiz-adv-x="1171" 
d="M1066 449h-962v128h962v-128zM1066 961h-962v128h962v-128z" />
    <glyph glyph-name="greater" unicode="&#x3e;" horiz-adv-x="1208" 
d="M125 1185l961 -320v-192l-961 -321v129l769 288l-769 288v128z" />
    <glyph glyph-name="question" unicode="?" horiz-adv-x="1273" 
d="M599 0q-40 0 -68 28t-28 68t28 68t68 28t68 -28t28 -68t-28 -68t-68 -28zM567 1506q125 0 227.5 -25.5t182 -78.5t123 -140.5t43.5 -204.5q0 -71 -26.5 -125.5t-69 -89t-93.5 -64t-102 -60t-93.5 -67.5t-69 -96.5t-26.5 -137.5l-128 -33q0 65 23 117.5t59.5 89.5t81 71
t89 70.5t81 78.5t59.5 105t23 141q0 117 -30.5 199.5t-88 129.5t-130 67.5t-167.5 20.5q-78 0 -146.5 -26.5t-110.5 -64t-72.5 -75.5t-43.5 -64l-12 -27l-41 84q2 4 6.5 11.5t22.5 29t40 40.5t61 43t83.5 41t108.5 28.5t136 11.5z" />
    <glyph glyph-name="at" unicode="@" horiz-adv-x="2344" 
d="M1173 1570q169 0 319.5 -36t280.5 -114.5t224 -192.5t147.5 -279t53.5 -366q0 -7 -0.5 -19t-0.5 -18q0 -150 -32.5 -259.5t-88.5 -170t-121.5 -88t-141.5 -27.5q-146 0 -224 187q-78 -92 -194 -139.5t-254 -47.5q-121 0 -225 37t-183 107t-124 181.5t-45 251.5t45 251.5
t124 181.5t182.5 106.5t225.5 36.5q214 6 384 -124v92l192 32v-448q0 -365 28.5 -519t99.5 -154q73 0 116.5 137.5t43.5 375.5q0 7 0.5 19t0.5 18q0 166 -41 309t-112 245t-162 181t-195.5 126.5t-207 71t-201.5 23.5q-125 0 -233 -38t-189 -105.5t-143.5 -157.5
t-102 -197.5t-59.5 -222.5t-20 -235q0 -143 29.5 -271t81 -227.5t121.5 -182.5t150.5 -141t168.5 -98t175 -59t171 -19q225 -3 406 137l25 -63q-235 -109 -495 -106q-168 0 -320 40.5t-281 125t-223.5 205t-148 289.5t-53.5 370t53.5 366t147.5 279t224 192.5t281 114.5
t320 36zM1205 32q108 0 201.5 63.5t156.5 168.5q-40 155 -38 313v337q-88 94 -204 147.5t-244 59.5q-74 0 -131.5 -32.5t-92.5 -84.5t-57.5 -125t-31 -146.5t-8.5 -155.5q0 -93 20 -173.5t54 -139t78.5 -104t95 -73t101.5 -41.5t100 -14z" />
    <glyph glyph-name="A" unicode="A" horiz-adv-x="1454" 
d="M1259 -1l-233 512q-114 -5 -256.5 -35.5t-283 -59.5t-257.5 -31l-173 -388l-29 13l607 1364l-9 21l27 20l131 96l634 -1397zM243 417q139 4 390.5 61.5t378.5 64.5l-360 792z" />
    <glyph glyph-name="A" unicode="&#xc5;" horiz-adv-x="1454" 
d="M1259 -1l-233 512q-114 -5 -256.5 -35.5t-283 -59.5t-257.5 -31l-173 -388l-29 13l607 1364l-9 21l27 20l131 96l634 -1397zM243 417q139 4 390.5 61.5t378.5 64.5l-360 792z" />
    <glyph glyph-name="A" unicode="&#xc4;" horiz-adv-x="1454" 
d="M1259 -1l-233 512q-114 -5 -256.5 -35.5t-283 -59.5t-257.5 -31l-173 -388l-29 13l607 1364l-9 21l27 20l131 96l634 -1397zM243 417q139 4 390.5 61.5t378.5 64.5l-360 792z" />
    <glyph glyph-name="A" unicode="&#xc3;" horiz-adv-x="1454" 
d="M1259 -1l-233 512q-114 -5 -256.5 -35.5t-283 -59.5t-257.5 -31l-173 -388l-29 13l607 1364l-9 21l27 20l131 96l634 -1397zM243 417q139 4 390.5 61.5t378.5 64.5l-360 792z" />
    <glyph glyph-name="A" unicode="&#xc1;" horiz-adv-x="1454" 
d="M1259 -1l-233 512q-114 -5 -256.5 -35.5t-283 -59.5t-257.5 -31l-173 -388l-29 13l607 1364l-9 21l27 20l131 96l634 -1397zM243 417q139 4 390.5 61.5t378.5 64.5l-360 792z" />
    <glyph glyph-name="A" unicode="&#xc0;" horiz-adv-x="1454" 
d="M1259 -1l-233 512q-114 -5 -256.5 -35.5t-283 -59.5t-257.5 -31l-173 -388l-29 13l607 1364l-9 21l27 20l131 96l634 -1397zM243 417q139 4 390.5 61.5t378.5 64.5l-360 792z" />
    <glyph glyph-name="B" unicode="B" horiz-adv-x="1630" 
d="M1198 873q156 -39 248.5 -144t92.5 -280q0 -241 -183 -345t-586 -104q-72 0 -176 8t-172 16l-68 8l-192 -32v1474l192 32h545q99 0 186.5 -17.5t162.5 -54.5t119 -103t44 -155q0 -137 -60.5 -209.5t-152.5 -93.5zM867 1474h-513v-702q106 8 298.5 64t314.5 60l-4 1
q121 0 188.5 80t67.5 208q0 74 -31.5 131.5t-83.5 91t-112 50t-125 16.5zM803 32q118 0 212.5 24t155.5 64t101.5 94.5t57.5 112.5t17 122q0 183 -101 293.5t-251 122.5q-84 0 -172.5 -17t-153.5 -38.5t-151.5 -42.5t-163.5 -27v-676q286 -32 449 -32z" />
    <glyph glyph-name="C" unicode="C" horiz-adv-x="1486" 
d="M1378 320l55 -101q-114 -110 -262 -167t-306 -52q-158 0 -296 49t-244 142.5t-167.5 242t-61.5 335.5q0 150 40 273t110.5 208.5t168 143.5t210.5 85t240 27q261 6 476 -140l-56 -130q-88 111 -215 174t-269 64q-111 0 -200 -40t-146.5 -106.5t-96 -158.5t-54.5 -191
t-16 -209q0 -148 39 -273t103.5 -209t148.5 -143t172.5 -85.5t177.5 -26.5q144 4 265 81.5t184 206.5z" />
    <glyph glyph-name="D" unicode="D" horiz-adv-x="1542" 
d="M674 1506q127 0 240 -27t210.5 -85t168 -143.5t110.5 -208.5t40 -273q0 -188 -56.5 -336t-156.5 -241.5t-233 -142.5t-291 -49q-50 0 -138 8t-151 16l-63 8l-192 -32v1474l192 32h320zM738 32q93 0 171 30t133 83.5t96 123t65.5 153.5t36 170t11.5 177q0 124 -27.5 230
t-75 181.5t-109.5 133t-135 92t-146.5 51.5t-147.5 17h-256v-1410q256 -32 384 -32z" />
    <glyph glyph-name="E" unicode="E" horiz-adv-x="1220" 
d="M963 1474l192 32v-192l-192 -33v161h-609v-672q81 5 185 37t205.5 61t186.5 29v-32q-85 0 -186.5 -29t-205.5 -61t-185 -37v-674h609v64l192 32v-128l-192 -32v32h-609l-192 -32v1474l192 32v-32h609z" />
    <glyph glyph-name="E" unicode="&#xcb;" horiz-adv-x="1220" 
d="M963 1474l192 32v-192l-192 -33v161h-609v-672q81 5 185 37t205.5 61t186.5 29v-32q-85 0 -186.5 -29t-205.5 -61t-185 -37v-674h609v64l192 32v-128l-192 -32v32h-609l-192 -32v1474l192 32v-32h609z" />
    <glyph glyph-name="E" unicode="&#xc9;" horiz-adv-x="1220" 
d="M963 1474l192 32v-192l-192 -33v161h-609v-672q81 5 185 37t205.5 61t186.5 29v-32q-85 0 -186.5 -29t-205.5 -61t-185 -37v-674h609v64l192 32v-128l-192 -32v32h-609l-192 -32v1474l192 32v-32h609z" />
    <glyph glyph-name="E" unicode="&#xc8;" horiz-adv-x="1220" 
d="M963 1474l192 32v-192l-192 -33v161h-609v-672q81 5 185 37t205.5 61t186.5 29v-32q-85 0 -186.5 -29t-205.5 -61t-185 -37v-674h609v64l192 32v-128l-192 -32v32h-609l-192 -32v1474l192 32v-32h609z" />
    <glyph glyph-name="F" unicode="F" horiz-adv-x="1181" 
d="M963 1474l192 32v-128l-192 -32v96h-609v-672q81 5 185 37t205.5 61t186.5 29v-32q-85 0 -186.5 -29t-205.5 -61t-185 -37v-706l-192 -32v1474l192 32v-32h609z" />
    <glyph glyph-name="G" unicode="G" horiz-adv-x="1521" 
d="M1433 449v-225l-2 -1l2 -4q-114 -110 -262 -167t-306 -52q-158 0 -296 49t-244 142.5t-167.5 242t-61.5 335.5q0 150 40 273t110.5 208.5t168 143.5t210.5 85t240 27q261 6 476 -140l-56 -130q-88 111 -215 174t-269 64q-111 0 -200 -40t-146.5 -106.5t-96 -158.5
t-54.5 -191t-16 -209q0 -148 39 -273t103.5 -209t148.5 -143t172.5 -85.5t177.5 -26.5q177 0 312 116v301q0 256 -160 256l-32 32q61 0 114 -8t103.5 -29t86.5 -53t58 -82.5t22 -115.5z" />
    <glyph glyph-name="H" unicode="H" horiz-adv-x="1574" 
d="M1219 1474l192 32v-1474l-192 -32v865q-101 0 -220.5 -20t-212 -44t-212 -44t-220.5 -20v-705l-192 -32v1474l192 32v-737q101 0 220.5 20t212 44t212 44t220.5 20v577z" />
    <glyph glyph-name="I" unicode="I" horiz-adv-x="516" 
d="M162 1474l192 32v-1474l-192 -32v1474z" />
    <glyph glyph-name="I" unicode="&#xcf;" horiz-adv-x="516" 
d="M162 1474l192 32v-1474l-192 -32v1474z" />
    <glyph glyph-name="I" unicode="&#xce;" horiz-adv-x="516" 
d="M162 1474l192 32v-1474l-192 -32v1474z" />
    <glyph glyph-name="I" unicode="&#xcd;" horiz-adv-x="516" 
d="M162 1474l192 32v-1474l-192 -32v1474z" />
    <glyph glyph-name="I" unicode="&#xcc;" horiz-adv-x="516" 
d="M162 1474l192 32v-1474l-192 -32v1474z" />
    <glyph glyph-name="J" unicode="J" horiz-adv-x="696" 
d="M349 1474l192 32v-1089q0 -417 -352 -417q-91 2 -160 64l64 64q1 -4 3.5 -10.5t11.5 -23t19.5 -29t27 -23t34.5 -10.5q91 0 125.5 86t34.5 266v1090z" />
    <glyph glyph-name="K" unicode="K" horiz-adv-x="1366" 
d="M569 864q119 -4 224.5 -47.5t181.5 -112.5t136.5 -155t97 -179t55.5 -179t19 -159l-128 -32q0 50 -10 115t-32.5 144t-55.5 157t-84.5 152.5t-113.5 131.5t-147 93t-181 39l-177 -148v-652l-192 -32v1474l192 32v-781l930 781l21 -25z" />
    <glyph glyph-name="L" unicode="L" horiz-adv-x="1179" 
d="M963 128l192 32v-128l-192 -32v32h-609l-192 -32v1474l192 32v-1442h609v64z" />
    <glyph glyph-name="M" unicode="M" horiz-adv-x="1830" 
d="M1475 1474l192 32v-1474l-192 -32v1401l-541 -937l20 -34l-56 -32l-544 943v-1309l-192 -32v1474l192 32v-37l562 -973l559 970v8z" />
    <glyph glyph-name="N" unicode="N" horiz-adv-x="1574" 
d="M1219 1474l192 32v-1474l-192 -32v37l-865 1113v-1118l-192 -32v1474l192 32v-304l865 -1112v1384z" />
    <glyph glyph-name="N" unicode="&#xd1;" horiz-adv-x="1574" 
d="M1219 1474l192 32v-1474l-192 -32v37l-865 1113v-1118l-192 -32v1474l192 32v-304l865 -1112v1384z" />
    <glyph glyph-name="O" unicode="O" horiz-adv-x="1730" 
d="M865 1506q127 0 240 -27t210.5 -85t168 -143.5t110.5 -208.5t40 -273q0 -187 -61.5 -335.5t-167.5 -242t-244 -142.5t-296 -49t-296 49t-244 142.5t-167.5 242t-61.5 335.5q0 150 40 273t110.5 208.5t168 143.5t210.5 85t240 27zM929 32q93 0 171 30t133 83.5t96 123
t65.5 153.5t36 170t11.5 177q0 124 -27.5 230t-75 181.5t-109.5 133t-135 92t-146.5 51.5t-147.5 17q-111 0 -200 -40t-146.5 -106.5t-96 -158.5t-54.5 -191t-16 -209q0 -148 39 -273t103.5 -209t148.5 -143t172.5 -85.5t177.5 -26.5z" />
    <glyph glyph-name="O" unicode="&#xd8;" horiz-adv-x="1730" 
d="M865 1506q127 0 240 -27t210.5 -85t168 -143.5t110.5 -208.5t40 -273q0 -187 -61.5 -335.5t-167.5 -242t-244 -142.5t-296 -49t-296 49t-244 142.5t-167.5 242t-61.5 335.5q0 150 40 273t110.5 208.5t168 143.5t210.5 85t240 27zM929 32q93 0 171 30t133 83.5t96 123
t65.5 153.5t36 170t11.5 177q0 124 -27.5 230t-75 181.5t-109.5 133t-135 92t-146.5 51.5t-147.5 17q-111 0 -200 -40t-146.5 -106.5t-96 -158.5t-54.5 -191t-16 -209q0 -148 39 -273t103.5 -209t148.5 -143t172.5 -85.5t177.5 -26.5z" />
    <glyph glyph-name="O" unicode="&#xd6;" horiz-adv-x="1730" 
d="M865 1506q127 0 240 -27t210.5 -85t168 -143.5t110.5 -208.5t40 -273q0 -187 -61.5 -335.5t-167.5 -242t-244 -142.5t-296 -49t-296 49t-244 142.5t-167.5 242t-61.5 335.5q0 150 40 273t110.5 208.5t168 143.5t210.5 85t240 27zM929 32q93 0 171 30t133 83.5t96 123
t65.5 153.5t36 170t11.5 177q0 124 -27.5 230t-75 181.5t-109.5 133t-135 92t-146.5 51.5t-147.5 17q-111 0 -200 -40t-146.5 -106.5t-96 -158.5t-54.5 -191t-16 -209q0 -148 39 -273t103.5 -209t148.5 -143t172.5 -85.5t177.5 -26.5z" />
    <glyph glyph-name="O" unicode="&#xd5;" horiz-adv-x="1730" 
d="M865 1506q127 0 240 -27t210.5 -85t168 -143.5t110.5 -208.5t40 -273q0 -187 -61.5 -335.5t-167.5 -242t-244 -142.5t-296 -49t-296 49t-244 142.5t-167.5 242t-61.5 335.5q0 150 40 273t110.5 208.5t168 143.5t210.5 85t240 27zM929 32q93 0 171 30t133 83.5t96 123
t65.5 153.5t36 170t11.5 177q0 124 -27.5 230t-75 181.5t-109.5 133t-135 92t-146.5 51.5t-147.5 17q-111 0 -200 -40t-146.5 -106.5t-96 -158.5t-54.5 -191t-16 -209q0 -148 39 -273t103.5 -209t148.5 -143t172.5 -85.5t177.5 -26.5z" />
    <glyph glyph-name="O" unicode="&#xd3;" horiz-adv-x="1730" 
d="M865 1506q127 0 240 -27t210.5 -85t168 -143.5t110.5 -208.5t40 -273q0 -187 -61.5 -335.5t-167.5 -242t-244 -142.5t-296 -49t-296 49t-244 142.5t-167.5 242t-61.5 335.5q0 150 40 273t110.5 208.5t168 143.5t210.5 85t240 27zM929 32q93 0 171 30t133 83.5t96 123
t65.5 153.5t36 170t11.5 177q0 124 -27.5 230t-75 181.5t-109.5 133t-135 92t-146.5 51.5t-147.5 17q-111 0 -200 -40t-146.5 -106.5t-96 -158.5t-54.5 -191t-16 -209q0 -148 39 -273t103.5 -209t148.5 -143t172.5 -85.5t177.5 -26.5z" />
    <glyph glyph-name="O" unicode="&#xd2;" horiz-adv-x="1730" 
d="M865 1506q127 0 240 -27t210.5 -85t168 -143.5t110.5 -208.5t40 -273q0 -187 -61.5 -335.5t-167.5 -242t-244 -142.5t-296 -49t-296 49t-244 142.5t-167.5 242t-61.5 335.5q0 150 40 273t110.5 208.5t168 143.5t210.5 85t240 27zM929 32q93 0 171 30t133 83.5t96 123
t65.5 153.5t36 170t11.5 177q0 124 -27.5 230t-75 181.5t-109.5 133t-135 92t-146.5 51.5t-147.5 17q-111 0 -200 -40t-146.5 -106.5t-96 -158.5t-54.5 -191t-16 -209q0 -148 39 -273t103.5 -209t148.5 -143t172.5 -85.5t177.5 -26.5z" />
    <glyph glyph-name="P" unicode="P" horiz-adv-x="1406" 
d="M835 1506q96 0 186 -25t163.5 -71t118 -121.5t44.5 -167.5q0 -74 -28.5 -138t-76 -108.5t-109.5 -76t-130 -46.5t-136 -15h-513v-705l-192 -32v1474l192 32h481zM867 769q65 0 116 21t82.5 55t52.5 81t29 95t8 100q0 147 -103 250t-249 103h-449v-705h513z" />
    <glyph glyph-name="Q" unicode="Q" horiz-adv-x="1730" 
d="M641 -32q127 0 265 -20t243 -44t262.5 -44t318.5 -20l-64 -96q-115 0 -230.5 20t-213 48t-193 56t-205.5 48t-215 20zM1634 769q0 -187 -61.5 -335.5t-167.5 -242t-244 -142.5t-296 -49t-296 49t-244 142.5t-167.5 242t-61.5 335.5q0 150 40 273t110.5 208.5t168 143.5
t210.5 85t240 27t240 -27t210.5 -85t168 -143.5t110.5 -208.5t40 -273zM288 769q0 -148 39 -273t103.5 -209t148.5 -143t172.5 -85.5t177.5 -26.5q93 0 171 30t133 83.5t96 123t65.5 153.5t36 170t11.5 177q0 124 -27.5 230t-75 181.5t-109.5 133t-135 92t-146.5 51.5
t-147.5 17q-111 0 -200 -40t-146.5 -106.5t-96 -158.5t-54.5 -191t-16 -209z" />
    <glyph glyph-name="R" unicode="R" horiz-adv-x="1454" 
d="M834 737q102 -31 188.5 -91t145.5 -133.5t100 -158.5t60 -166t19 -156l-128 -32q0 51 -10 111.5t-33.5 132.5t-57.5 140.5t-86.5 133t-116 113t-151 77.5t-186.5 29h-224v-705l-192 -32v1474l192 32h481q96 0 186 -25t163.5 -71t118 -121.5t44.5 -167.5q0 -74 -28.5 -138
t-76 -108.5t-109.5 -76t-130 -46.5t-136 -15h-33zM354 769h513q65 0 116 21t82.5 55t52.5 81t29 95t8 100q0 147 -103 250t-249 103h-449v-705z" />
    <glyph glyph-name="S" unicode="S" horiz-adv-x="1429" 
d="M735 833q43 -6 87.5 -15t107 -26t117 -38.5t110.5 -54.5t96 -71.5t65.5 -91.5t25.5 -113q0 -124 -38 -206.5t-119.5 -130t-193 -67t-274.5 -19.5q-80 0 -153 9t-128 23.5t-103 34t-82.5 40.5t-62.5 42t-45.5 40.5t-29 34t-16.5 23.5l-5 9l84 96q3 -7 10 -18.5t31.5 -44.5
t53 -63.5t76 -67t99 -63.5t123 -45t148.5 -18q106 0 190 30.5t136 84t79 122.5t27 148q0 151 -122.5 251t-325.5 133q-28 5 -81 11t-96 11t-99.5 16t-100.5 24.5t-89.5 36.5t-75 52t-48.5 72.5t-19 96.5q0 86 27.5 152t78 110t127.5 71.5t168.5 39.5t207.5 12q165 0 326 -34
t251 -96l-97 -127q-56 84 -144 137t-168.5 70.5t-167.5 17.5q-187 0 -302 -98t-115 -255q0 -54 16.5 -96.5t47.5 -70.5t70 -48t89.5 -32.5t100.5 -21.5t108 -17q4 0 6 -0.5t5 -1t6 -0.5z" />
    <glyph glyph-name="T" unicode="T" horiz-adv-x="1277" 
d="M1056 1474l192 32v-192l-192 -33v161h-320v-1410l-193 -32v1442h-320v-128l-192 -33v193l192 32v-32h320l193 32v-32h320z" />
    <glyph glyph-name="U" unicode="U" horiz-adv-x="1560" 
d="M1233 1474l192 32v-833q0 -90 -19.5 -180t-66.5 -180t-116 -158.5t-176 -111.5t-239 -43q-119 0 -215.5 16.5t-182 57.5t-143.5 105.5t-91 165t-33 232.5v897l193 32v-929q0 -264 131.5 -404.5t380.5 -140.5q73 0 132 23t98.5 60t68.5 93t45.5 112t26 128t12 129.5
t2.5 127.5v769z" />
    <glyph glyph-name="U" unicode="&#xdc;" horiz-adv-x="1560" 
d="M1233 1474l192 32v-833q0 -90 -19.5 -180t-66.5 -180t-116 -158.5t-176 -111.5t-239 -43q-119 0 -215.5 16.5t-182 57.5t-143.5 105.5t-91 165t-33 232.5v897l193 32v-929q0 -264 131.5 -404.5t380.5 -140.5q73 0 132 23t98.5 60t68.5 93t45.5 112t26 128t12 129.5
t2.5 127.5v769z" />
    <glyph glyph-name="U" unicode="&#xdb;" horiz-adv-x="1560" 
d="M1233 1474l192 32v-833q0 -90 -19.5 -180t-66.5 -180t-116 -158.5t-176 -111.5t-239 -43q-119 0 -215.5 16.5t-182 57.5t-143.5 105.5t-91 165t-33 232.5v897l193 32v-929q0 -264 131.5 -404.5t380.5 -140.5q73 0 132 23t98.5 60t68.5 93t45.5 112t26 128t12 129.5
t2.5 127.5v769z" />
    <glyph glyph-name="U" unicode="&#xda;" horiz-adv-x="1560" 
d="M1233 1474l192 32v-833q0 -90 -19.5 -180t-66.5 -180t-116 -158.5t-176 -111.5t-239 -43q-119 0 -215.5 16.5t-182 57.5t-143.5 105.5t-91 165t-33 232.5v897l193 32v-929q0 -264 131.5 -404.5t380.5 -140.5q73 0 132 23t98.5 60t68.5 93t45.5 112t26 128t12 129.5
t2.5 127.5v769z" />
    <glyph glyph-name="U" unicode="&#xd9;" horiz-adv-x="1560" 
d="M1233 1474l192 32v-833q0 -90 -19.5 -180t-66.5 -180t-116 -158.5t-176 -111.5t-239 -43q-119 0 -215.5 16.5t-182 57.5t-143.5 105.5t-91 165t-33 232.5v897l193 32v-929q0 -264 131.5 -404.5t380.5 -140.5q73 0 132 23t98.5 60t68.5 93t45.5 112t26 128t12 129.5
t2.5 127.5v769z" />
    <glyph glyph-name="V" unicode="V" horiz-adv-x="1531" 
d="M1507 1498l-657 -1322l27 -55l-154 -121l-690 1389l154 121l645 -1298l646 1301z" />
    <glyph glyph-name="W" unicode="W" horiz-adv-x="2318" 
d="M2292 1498l-656 -1322l26 -55l-153 -121l-374 751l-285 -575l27 -55l-154 -121l-690 1389l154 121l645 -1298l286 575l-299 602l153 121l253 -507l253 510l29 -15l-264 -531l375 -755l646 1301z" />
    <glyph glyph-name="X" unicode="X" horiz-adv-x="1394" 
d="M1344 156l-117 -159l-582 693l-577 -688l-25 21l581 692l-530 632l118 159l537 -641l538 641l25 -21l-542 -645z" />
    <glyph glyph-name="Y" unicode="Y" horiz-adv-x="1323" 
d="M1302 1489l-545 -944h1v-513l-192 -32v464l-535 919l150 123l549 -944l545 943z" />
    <glyph glyph-name="Y" unicode="&#x178;" horiz-adv-x="1323" 
d="M1302 1489l-545 -944h1v-513l-192 -32v464l-535 919l150 123l549 -944l545 943z" />
    <glyph glyph-name="Y" unicode="&#xdd;" horiz-adv-x="1323" 
d="M1302 1489l-545 -944h1v-513l-192 -32v464l-535 919l150 123l549 -944l545 943z" />
    <glyph glyph-name="Z" unicode="Z" horiz-adv-x="1382" 
d="M1323 1474v-32l-1057 -1154q55 -122 168.5 -192t247.5 -64q67 0 128 14.5t108.5 38.5t89.5 55t72.5 66t56 69.5t42 65.5t27.5 55t16 38l5 15l64 -97q-3 -7 -10 -20t-33 -49.5t-57.5 -69.5t-86 -74t-116.5 -70t-151 -49t-187 -20q-85 0 -162.5 14t-134 36.5t-104.5 50
t-79.5 55t-54 50t-31.5 36.5l-10 14v32l1057 1154h-865v-128l-192 -33v193l192 32v-32h1057z" />
    <glyph glyph-name="bracketleft" unicode="[" horiz-adv-x="520" 
d="M612 1602h-256v-1954h256v-32h-256l-192 -32v2018l192 32h256v-32z" />
    <glyph glyph-name="backslash" unicode="\" horiz-adv-x="966" 
d="M186 1858l737 -2050l-192 -32l-737 2050z" />
    <glyph glyph-name="bracketright" unicode="]" horiz-adv-x="520" 
d="M164 1634l192 32v-2018l-192 -32h-256v32h256v1954h-256v32h256z" />
    <glyph glyph-name="grave" unicode="`" horiz-adv-x="409" 
d="M205 1506q40 0 68 -28t28 -68q0 -100 -49.5 -162t-142.5 -62v32q43 0 66.5 22t28.5 74q-40 0 -67.5 28.5t-27.5 68.5t28 67.5t68 27.5z" />
    <glyph glyph-name="a" unicode="a" 
d="M1059 1121l193 32v-1121l-193 -32v124q-170 -130 -384 -124q-121 0 -225 37t-183 107t-124 181.5t-45 251.5t45 251.5t124 181.5t182.5 106.5t225.5 36.5q214 6 384 -124v92zM739 32q96 4 180.5 50.5t139.5 125.5v706q-88 94 -204 147.5t-244 59.5q-74 0 -131.5 -32.5
t-92 -84.5t-57 -125.5t-31 -146.5t-8.5 -155q0 -111 28.5 -204t74 -154.5t105 -104.5t120 -62.5t120.5 -19.5z" />
    <glyph glyph-name="a" unicode="&#xe5;" 
d="M1059 1121l193 32v-1121l-193 -32v124q-170 -130 -384 -124q-121 0 -225 37t-183 107t-124 181.5t-45 251.5t45 251.5t124 181.5t182.5 106.5t225.5 36.5q214 6 384 -124v92zM739 32q96 4 180.5 50.5t139.5 125.5v706q-88 94 -204 147.5t-244 59.5q-74 0 -131.5 -32.5
t-92 -84.5t-57 -125.5t-31 -146.5t-8.5 -155q0 -111 28.5 -204t74 -154.5t105 -104.5t120 -62.5t120.5 -19.5z" />
    <glyph glyph-name="a" unicode="&#xe4;" 
d="M1059 1121l193 32v-1121l-193 -32v124q-170 -130 -384 -124q-121 0 -225 37t-183 107t-124 181.5t-45 251.5t45 251.5t124 181.5t182.5 106.5t225.5 36.5q214 6 384 -124v92zM739 32q96 4 180.5 50.5t139.5 125.5v706q-88 94 -204 147.5t-244 59.5q-74 0 -131.5 -32.5
t-92 -84.5t-57 -125.5t-31 -146.5t-8.5 -155q0 -111 28.5 -204t74 -154.5t105 -104.5t120 -62.5t120.5 -19.5z" />
    <glyph glyph-name="a" unicode="&#xe3;" 
d="M1059 1121l193 32v-1121l-193 -32v124q-170 -130 -384 -124q-121 0 -225 37t-183 107t-124 181.5t-45 251.5t45 251.5t124 181.5t182.5 106.5t225.5 36.5q214 6 384 -124v92zM739 32q96 4 180.5 50.5t139.5 125.5v706q-88 94 -204 147.5t-244 59.5q-74 0 -131.5 -32.5
t-92 -84.5t-57 -125.5t-31 -146.5t-8.5 -155q0 -111 28.5 -204t74 -154.5t105 -104.5t120 -62.5t120.5 -19.5z" />
    <glyph glyph-name="a" unicode="&#xe1;" 
d="M1059 1121l193 32v-1121l-193 -32v124q-170 -130 -384 -124q-121 0 -225 37t-183 107t-124 181.5t-45 251.5t45 251.5t124 181.5t182.5 106.5t225.5 36.5q214 6 384 -124v92zM739 32q96 4 180.5 50.5t139.5 125.5v706q-88 94 -204 147.5t-244 59.5q-74 0 -131.5 -32.5
t-92 -84.5t-57 -125.5t-31 -146.5t-8.5 -155q0 -111 28.5 -204t74 -154.5t105 -104.5t120 -62.5t120.5 -19.5z" />
    <glyph glyph-name="a" unicode="&#xe0;" 
d="M1059 1121l193 32v-1121l-193 -32v124q-170 -130 -384 -124q-121 0 -225 37t-183 107t-124 181.5t-45 251.5t45 251.5t124 181.5t182.5 106.5t225.5 36.5q214 6 384 -124v92zM739 32q96 4 180.5 50.5t139.5 125.5v706q-88 94 -204 147.5t-244 59.5q-74 0 -131.5 -32.5
t-92 -84.5t-57 -125.5t-31 -146.5t-8.5 -155q0 -111 28.5 -204t74 -154.5t105 -104.5t120 -62.5t120.5 -19.5z" />
    <glyph glyph-name="b" unicode="b" 
d="M728 1153q122 0 225.5 -36.5t182.5 -106.5t124 -181.5t45 -251.5t-45 -251.5t-124 -181.5t-183 -107t-225 -37q-214 -6 -384 124v-92l-192 -32v1474l192 32v-477q170 130 384 124zM792 32q74 0 131.5 32.5t92.5 85t57.5 125.5t31 146.5t8.5 155.5q0 111 -28.5 203.5
t-74.5 154.5t-105.5 105t-120 62t-120.5 19q-96 -4 -180.5 -50.5t-139.5 -125.5v-705q88 -94 204 -148t244 -60z" />
    <glyph glyph-name="c" unicode="c" horiz-adv-x="1150" 
d="M1059 224l32 -64q-70 -70 -191.5 -115t-224.5 -45q-121 0 -225 37t-183 107t-124 181.5t-45 251.5t45 251.5t124 181.5t182.5 106.5t225.5 36.5q191 5 352 -100l-61 -131q-58 91 -152.5 143.5t-202.5 55.5q-74 0 -131.5 -32.5t-92 -84.5t-57 -125.5t-31 -146.5t-8.5 -155
q0 -111 28.5 -204t74 -154.5t105 -104.5t120 -62.5t120.5 -19.5q98 7 182.5 58t137.5 134z" />
    <glyph glyph-name="d" unicode="d" 
d="M1059 1474l193 32v-1474l-193 -32v124q-170 -130 -384 -124q-121 0 -225 37t-183 107t-124 181.5t-45 251.5t45 251.5t124 181.5t182.5 106.5t225.5 36.5q214 6 384 -124v445zM739 32q96 4 180.5 50.5t139.5 125.5v705q-88 94 -204 148t-244 60q-74 0 -131.5 -32.5
t-92 -84.5t-57 -125.5t-31 -146.5t-8.5 -155q0 -111 28.5 -204t74 -154.5t105 -104.5t120 -62.5t120.5 -19.5z" />
    <glyph glyph-name="e" unicode="e" horiz-adv-x="1300" 
d="M739 32q99 8 183 58.5t137 133.5l32 -64q-70 -70 -191.5 -115t-224.5 -45q-237 0 -395.5 132.5t-178.5 379.5q-3 32 -3 65q0 140 45 251.5t124 181.5t182.5 106.5t225.5 36.5q34 0 51 -1q6 0 18 -2q5 0 15.5 -1t15.5 -2q3 -1 10.5 -2t11.5 -2q7 -1 26 -5q4 -1 11.5 -2.5
t11.5 -2.5t11.5 -3t11.5 -3q8 -2 24 -8q14 -4 21 -7q4 -2 11.5 -5t11.5 -5q3 -1 9.5 -3.5t9.5 -4.5q16 -8 23 -12q12 -6 18 -10l21 -12q2 -1 5 -3.5t4 -3.5q88 -61 143.5 -151.5t70.5 -196.5h-182q-91 0 -197 -18.5t-188 -41.5t-188.5 -43.5t-194.5 -23.5v-1
q0 -111 28.5 -204t74 -154.5t105 -104.5t120 -62.5t120.5 -19.5zM611 1121q-88 0 -152 -44t-98.5 -120.5t-51 -161.5t-18.5 -185q108 4 242 34.5t266.5 60t242.5 31.5q-21 103 -79 189q-13 20 -33 43l-7 7q-10 11 -30 31q-2 2 -5.5 5t-4.5 4q-26 22 -38 30q-1 0 -1 1
q-13 9 -41 25q-2 1 -5.5 2.5t-5.5 2.5q-11 6 -35 16l-9 3q-28 10 -42 14q-2 1 -5 1t-4 1q-5 1 -10.5 2t-12.5 2t-11 2q-8 2 -11 2q-13 2 -41 2z" />
    <glyph glyph-name="e" unicode="&#xeb;" horiz-adv-x="1300" 
d="M739 32q99 8 183 58.5t137 133.5l32 -64q-70 -70 -191.5 -115t-224.5 -45q-237 0 -395.5 132.5t-178.5 379.5q-3 32 -3 65q0 140 45 251.5t124 181.5t182.5 106.5t225.5 36.5q34 0 51 -1q6 0 18 -2q5 0 15.5 -1t15.5 -2q3 -1 10.5 -2t11.5 -2q7 -1 26 -5q4 -1 11.5 -2.5
t11.5 -2.5t11.5 -3t11.5 -3q8 -2 24 -8q14 -4 21 -7q4 -2 11.5 -5t11.5 -5q3 -1 9.5 -3.5t9.5 -4.5q16 -8 23 -12q12 -6 18 -10l21 -12q2 -1 5 -3.5t4 -3.5q88 -61 143.5 -151.5t70.5 -196.5h-182q-91 0 -197 -18.5t-188 -41.5t-188.5 -43.5t-194.5 -23.5v-1
q0 -111 28.5 -204t74 -154.5t105 -104.5t120 -62.5t120.5 -19.5zM611 1121q-88 0 -152 -44t-98.5 -120.5t-51 -161.5t-18.5 -185q108 4 242 34.5t266.5 60t242.5 31.5q-21 103 -79 189q-13 20 -33 43l-7 7q-10 11 -30 31q-2 2 -5.5 5t-4.5 4q-26 22 -38 30q-1 0 -1 1
q-13 9 -41 25q-2 1 -5.5 2.5t-5.5 2.5q-11 6 -35 16l-9 3q-28 10 -42 14q-2 1 -5 1t-4 1q-5 1 -10.5 2t-12.5 2t-11 2q-8 2 -11 2q-13 2 -41 2z" />
    <glyph glyph-name="e" unicode="&#xe9;" horiz-adv-x="1300" 
d="M739 32q99 8 183 58.5t137 133.5l32 -64q-70 -70 -191.5 -115t-224.5 -45q-237 0 -395.5 132.5t-178.5 379.5q-3 32 -3 65q0 140 45 251.5t124 181.5t182.5 106.5t225.5 36.5q34 0 51 -1q6 0 18 -2q5 0 15.5 -1t15.5 -2q3 -1 10.5 -2t11.5 -2q7 -1 26 -5q4 -1 11.5 -2.5
t11.5 -2.5t11.5 -3t11.5 -3q8 -2 24 -8q14 -4 21 -7q4 -2 11.5 -5t11.5 -5q3 -1 9.5 -3.5t9.5 -4.5q16 -8 23 -12q12 -6 18 -10l21 -12q2 -1 5 -3.5t4 -3.5q88 -61 143.5 -151.5t70.5 -196.5h-182q-91 0 -197 -18.5t-188 -41.5t-188.5 -43.5t-194.5 -23.5v-1
q0 -111 28.5 -204t74 -154.5t105 -104.5t120 -62.5t120.5 -19.5zM611 1121q-88 0 -152 -44t-98.5 -120.5t-51 -161.5t-18.5 -185q108 4 242 34.5t266.5 60t242.5 31.5q-21 103 -79 189q-13 20 -33 43l-7 7q-10 11 -30 31q-2 2 -5.5 5t-4.5 4q-26 22 -38 30q-1 0 -1 1
q-13 9 -41 25q-2 1 -5.5 2.5t-5.5 2.5q-11 6 -35 16l-9 3q-28 10 -42 14q-2 1 -5 1t-4 1q-5 1 -10.5 2t-12.5 2t-11 2q-8 2 -11 2q-13 2 -41 2z" />
    <glyph glyph-name="e" unicode="&#xe8;" horiz-adv-x="1300" 
d="M739 32q99 8 183 58.5t137 133.5l32 -64q-70 -70 -191.5 -115t-224.5 -45q-237 0 -395.5 132.5t-178.5 379.5q-3 32 -3 65q0 140 45 251.5t124 181.5t182.5 106.5t225.5 36.5q34 0 51 -1q6 0 18 -2q5 0 15.5 -1t15.5 -2q3 -1 10.5 -2t11.5 -2q7 -1 26 -5q4 -1 11.5 -2.5
t11.5 -2.5t11.5 -3t11.5 -3q8 -2 24 -8q14 -4 21 -7q4 -2 11.5 -5t11.5 -5q3 -1 9.5 -3.5t9.5 -4.5q16 -8 23 -12q12 -6 18 -10l21 -12q2 -1 5 -3.5t4 -3.5q88 -61 143.5 -151.5t70.5 -196.5h-182q-91 0 -197 -18.5t-188 -41.5t-188.5 -43.5t-194.5 -23.5v-1
q0 -111 28.5 -204t74 -154.5t105 -104.5t120 -62.5t120.5 -19.5zM611 1121q-88 0 -152 -44t-98.5 -120.5t-51 -161.5t-18.5 -185q108 4 242 34.5t266.5 60t242.5 31.5q-21 103 -79 189q-13 20 -33 43l-7 7q-10 11 -30 31q-2 2 -5.5 5t-4.5 4q-26 22 -38 30q-1 0 -1 1
q-13 9 -41 25q-2 1 -5.5 2.5t-5.5 2.5q-11 6 -35 16l-9 3q-28 10 -42 14q-2 1 -5 1t-4 1q-5 1 -10.5 2t-12.5 2t-11 2q-8 2 -11 2q-13 2 -41 2z" />
    <glyph glyph-name="f" unicode="f" horiz-adv-x="673" 
d="M548 1474q-91 0 -125.5 -86.5t-34.5 -266.5h256v-32h-256v-1057l-192 -32v1089h-128v32h129q13 385 351 385q91 -2 160 -64l-64 -65q-1 4 -3.5 10.5t-11.5 23t-19.5 29.5t-27 23.5t-34.5 10.5z" />
    <glyph glyph-name="g" unicode="g" horiz-adv-x="1275" 
d="M669 128q125 0 225.5 -13.5t181.5 -42.5t125 -79.5t44 -120.5q0 -71 -40.5 -121t-120.5 -79.5t-189.5 -43t-257.5 -13.5q-108 0 -203.5 20t-155 48t-104 56t-63.5 48l-19 20l96 97q7 -10 19.5 -27.5t55.5 -62t91.5 -78t125 -61.5t157.5 -28q416 0 416 225q0 58 -39 102
t-109.5 70t-161.5 39t-202 13q-48 0 -76 0.5t-81.5 4t-87.5 10.5t-76.5 21t-67.5 34t-42.5 51t-17.5 71q0 135 159 218q-103 111 -95 263q0 179 115 281.5t366 102.5q267 0 387 -123q93 69 93 283l96 -64q0 -204 -153 -262q62 -100 57 -218q0 -180 -114.5 -282.5
t-365.5 -102.5q-213 0 -333 79q-84 -69 -84 -175q0 -29 10.5 -52.5t33.5 -40t46.5 -28.5t63 -19t68 -11.5t77 -6t75 -2t75.5 -0.5zM637 1121q-119 0 -203.5 -103.5t-84.5 -248.5t84.5 -249t203.5 -104t203.5 104t84.5 249t-84.5 248.5t-203.5 103.5z" />
    <glyph glyph-name="h" unicode="h" horiz-adv-x="1310" 
d="M726 1153q202 0 325.5 -104.5t123.5 -311.5v-705l-193 -32v737q0 91 -14 158t-46 119.5t-89 79.5t-139 27q-81 0 -149 -33t-111.5 -87.5t-67.5 -122.5t-24 -141v-705l-192 -32v1474l192 32v-590q52 112 156.5 176.5t227.5 60.5z" />
    <glyph glyph-name="i" unicode="i" horiz-adv-x="487" 
d="M147 0v1089l193 32v-1089zM244 1217q-40 0 -68.5 28t-28.5 68t28.5 68t68.5 28t68 -28t28 -68t-28 -68t-68 -28z" />
    <glyph glyph-name="i" unicode="&#xef;" horiz-adv-x="487" 
d="M147 0v1089l193 32v-1089zM244 1217q-40 0 -68.5 28t-28.5 68t28.5 68t68.5 28t68 -28t28 -68t-28 -68t-68 -28z" />
    <glyph glyph-name="i" unicode="&#xee;" horiz-adv-x="487" 
d="M147 0v1089l193 32v-1089zM244 1217q-40 0 -68.5 28t-28.5 68t28.5 68t68.5 28t68 -28t28 -68t-28 -68t-68 -28z" />
    <glyph glyph-name="i" unicode="&#xed;" horiz-adv-x="487" 
d="M147 0v1089l193 32v-1089zM244 1217q-40 0 -68.5 28t-28.5 68t28.5 68t68.5 28t68 -28t28 -68t-28 -68t-68 -28z" />
    <glyph glyph-name="i" unicode="&#xec;" horiz-adv-x="487" 
d="M147 0v1089l193 32v-1089zM244 1217q-40 0 -68.5 28t-28.5 68t28.5 68t68.5 28t68 -28t28 -68t-28 -68t-68 -28z" />
    <glyph glyph-name="j" unicode="j" horiz-adv-x="487" 
d="M146 0v1089l192 32v-1089q0 -417 -352 -417q-90 2 -160 65l64 64q1 -4 3.5 -10.5t11.5 -23t19.5 -29.5t27 -23.5t34.5 -10.5q91 0 125.5 86.5t34.5 266.5zM242 1217q-40 0 -68 28t-28 68t28 68t68 28t68 -28t28 -68t-28 -68t-68 -28z" />
    <glyph glyph-name="k" unicode="k" horiz-adv-x="1167" 
d="M551 670q93 -11 179.5 -63t148 -125t108.5 -156.5t70.5 -160t23.5 -133.5l-141 -32q0 42 -10 101.5t-30.5 131.5t-55.5 142t-79.5 128.5t-109.5 96t-139 40.5l-172 -144v-462l-192 -32v1473l192 32v-969l160 134v1h1l574 482l21 -25z" />
    <glyph glyph-name="l" unicode="l" horiz-adv-x="493" 
d="M-41 1506q61 0 114 -8.5t103.5 -29t86.5 -52.5t58 -83t22 -116v-1185l-192 -32v1217q0 64 -11 112.5t-27 75t-38.5 43t-42 21.5t-41.5 5z" />
    <glyph glyph-name="m" unicode="m" horiz-adv-x="1826" 
d="M1303 1153q190 0 287 -91t97 -261v-769l-192 -32v801q0 85 -21.5 154.5t-74 117.5t-128.5 48q-119 0 -188 -87.5t-69 -232.5v-769l-192 -32v801q0 85 -21.5 154.5t-74 117.5t-128.5 48q-119 0 -187.5 -87.5t-68.5 -232.5v-769l-192 -32v1089l192 32v-137q40 82 118.5 128
t169.5 41q298 0 366 -219q28 102 109.5 160.5t197.5 58.5z" />
    <glyph glyph-name="n" unicode="n" horiz-adv-x="1310" 
d="M726 1153q202 0 325.5 -104.5t123.5 -311.5v-705l-193 -32v737q0 91 -14 158t-46 119.5t-89 79.5t-139 27q-81 0 -149 -33t-111.5 -87.5t-67.5 -122.5t-24 -141v-705l-192 -32v1089l192 32v-205q52 112 156.5 176.5t227.5 60.5z" />
    <glyph glyph-name="n" unicode="&#xf1;" horiz-adv-x="1310" 
d="M726 1153q202 0 325.5 -104.5t123.5 -311.5v-705l-193 -32v737q0 91 -14 158t-46 119.5t-89 79.5t-139 27q-81 0 -149 -33t-111.5 -87.5t-67.5 -122.5t-24 -141v-705l-192 -32v1089l192 32v-205q52 112 156.5 176.5t227.5 60.5z" />
    <glyph glyph-name="o" unicode="o" horiz-adv-x="1351" 
d="M675 1153q122 0 225.5 -36.5t182.5 -106.5t124 -181.5t45 -251.5t-45 -251.5t-124 -181.5t-183 -107t-225 -37t-225 37t-183 107t-124 181.5t-45 251.5t45 251.5t124 181.5t182.5 106.5t225.5 36.5zM739 32q74 0 131.5 32.5t92 85t57 125.5t31 146.5t8.5 155.5
q0 111 -28.5 203.5t-74 154.5t-105 105t-120 62t-120.5 19q-74 0 -131.5 -32.5t-92 -84.5t-57 -125.5t-31 -146.5t-8.5 -155q0 -111 28.5 -204t74 -154.5t105 -104.5t120 -62.5t120.5 -19.5z" />
    <glyph glyph-name="o" unicode="&#xf8;" horiz-adv-x="1351" 
d="M675 1153q122 0 225.5 -36.5t182.5 -106.5t124 -181.5t45 -251.5t-45 -251.5t-124 -181.5t-183 -107t-225 -37t-225 37t-183 107t-124 181.5t-45 251.5t45 251.5t124 181.5t182.5 106.5t225.5 36.5zM739 32q74 0 131.5 32.5t92 85t57 125.5t31 146.5t8.5 155.5
q0 111 -28.5 203.5t-74 154.5t-105 105t-120 62t-120.5 19q-74 0 -131.5 -32.5t-92 -84.5t-57 -125.5t-31 -146.5t-8.5 -155q0 -111 28.5 -204t74 -154.5t105 -104.5t120 -62.5t120.5 -19.5z" />
    <glyph glyph-name="o" unicode="&#xf6;" horiz-adv-x="1351" 
d="M675 1153q122 0 225.5 -36.5t182.5 -106.5t124 -181.5t45 -251.5t-45 -251.5t-124 -181.5t-183 -107t-225 -37t-225 37t-183 107t-124 181.5t-45 251.5t45 251.5t124 181.5t182.5 106.5t225.5 36.5zM739 32q74 0 131.5 32.5t92 85t57 125.5t31 146.5t8.5 155.5
q0 111 -28.5 203.5t-74 154.5t-105 105t-120 62t-120.5 19q-74 0 -131.5 -32.5t-92 -84.5t-57 -125.5t-31 -146.5t-8.5 -155q0 -111 28.5 -204t74 -154.5t105 -104.5t120 -62.5t120.5 -19.5z" />
    <glyph glyph-name="o" unicode="&#xf5;" horiz-adv-x="1351" 
d="M675 1153q122 0 225.5 -36.5t182.5 -106.5t124 -181.5t45 -251.5t-45 -251.5t-124 -181.5t-183 -107t-225 -37t-225 37t-183 107t-124 181.5t-45 251.5t45 251.5t124 181.5t182.5 106.5t225.5 36.5zM739 32q74 0 131.5 32.5t92 85t57 125.5t31 146.5t8.5 155.5
q0 111 -28.5 203.5t-74 154.5t-105 105t-120 62t-120.5 19q-74 0 -131.5 -32.5t-92 -84.5t-57 -125.5t-31 -146.5t-8.5 -155q0 -111 28.5 -204t74 -154.5t105 -104.5t120 -62.5t120.5 -19.5z" />
    <glyph glyph-name="o" unicode="&#xf3;" horiz-adv-x="1351" 
d="M675 1153q122 0 225.5 -36.5t182.5 -106.5t124 -181.5t45 -251.5t-45 -251.5t-124 -181.5t-183 -107t-225 -37t-225 37t-183 107t-124 181.5t-45 251.5t45 251.5t124 181.5t182.5 106.5t225.5 36.5zM739 32q74 0 131.5 32.5t92 85t57 125.5t31 146.5t8.5 155.5
q0 111 -28.5 203.5t-74 154.5t-105 105t-120 62t-120.5 19q-74 0 -131.5 -32.5t-92 -84.5t-57 -125.5t-31 -146.5t-8.5 -155q0 -111 28.5 -204t74 -154.5t105 -104.5t120 -62.5t120.5 -19.5z" />
    <glyph glyph-name="o" unicode="&#xf2;" horiz-adv-x="1351" 
d="M675 1153q122 0 225.5 -36.5t182.5 -106.5t124 -181.5t45 -251.5t-45 -251.5t-124 -181.5t-183 -107t-225 -37t-225 37t-183 107t-124 181.5t-45 251.5t45 251.5t124 181.5t182.5 106.5t225.5 36.5zM739 32q74 0 131.5 32.5t92 85t57 125.5t31 146.5t8.5 155.5
q0 111 -28.5 203.5t-74 154.5t-105 105t-120 62t-120.5 19q-74 0 -131.5 -32.5t-92 -84.5t-57 -125.5t-31 -146.5t-8.5 -155q0 -111 28.5 -204t74 -154.5t105 -104.5t120 -62.5t120.5 -19.5z" />
    <glyph glyph-name="p" unicode="p" horiz-adv-x="1402" 
d="M726 1153q122 0 225.5 -36.5t182.5 -106.5t124 -181.5t45 -251.5t-45 -251.5t-124 -181.5t-183 -107t-225 -37q-214 -6 -384 124v-476l-192 -32v1473l192 32v-92q170 130 384 124zM790 32q74 0 131.5 32.5t92.5 85t57.5 125.5t31 146.5t8.5 155.5q0 111 -28.5 203.5
t-74.5 154.5t-105.5 105t-120 62t-120.5 19q-96 -4 -180.5 -50.5t-139.5 -125.5v-705q88 -94 204 -148t244 -60z" />
    <glyph glyph-name="q" unicode="q" 
d="M1059 1089l193 32v-1474l-193 -32v509q-170 -130 -384 -124q-121 0 -225 37t-183 107t-124 181.5t-45 251.5t45 251.5t124 181.5t182.5 106.5t225.5 36.5q214 6 384 -124v60zM739 32q96 4 180.5 50.5t139.5 125.5v705q-88 94 -204 148t-244 60q-74 0 -131.5 -32.5
t-92 -84.5t-57 -125.5t-31 -146.5t-8.5 -155q0 -111 28.5 -204t74 -154.5t105 -104.5t120 -62.5t120.5 -19.5z" />
    <glyph glyph-name="r" unicode="r" horiz-adv-x="1073" 
d="M662 1153q165 0 258.5 -106t93.5 -278l-192 -32q0 68 -8 129t-27.5 122t-59.5 97t-97 36q-78 0 -145 -56t-105 -144.5t-38 -183.5v-705l-192 -32v1089l192 32v-189q37 100 125 161t195 60z" />
    <glyph glyph-name="s" unicode="s" horiz-adv-x="1153" 
d="M609 641q448 -90 448 -321q0 -95 -29 -158t-92 -98.5t-148 -49.5t-211 -14q-108 0 -197 20t-139 48t-85 56t-48 48l-12 20l64 96q5 -10 15.5 -27.5t48.5 -61.5t82 -78t117 -61.5t154 -27.5q288 0 288 288q0 115 -80.5 189.5t-207.5 99.5q-19 4 -65.5 10t-86 12.5t-90 18
t-90.5 29t-75 42t-54.5 61.5t-19.5 83q0 82 34 139t99.5 89t150 46t197.5 14q128 0 253.5 -26t194.5 -74l-62 -131q-68 92 -169.5 144.5t-216.5 54.5q-142 0 -215.5 -67t-73.5 -189q0 -47 18 -82.5t36 -55t68 -37.5t71.5 -23t88.5 -18q26 -5 39 -8z" />
    <glyph glyph-name="t" unicode="t" horiz-adv-x="747" 
d="M638 128l64 -64q-69 -62 -160 -64q-352 0 -352 417v672h-129v32h129v193l192 32v-225h256v-32h-256v-705q0 -180 34.5 -266t125.5 -86q28 0 52 24t34 48z" />
    <glyph glyph-name="u" unicode="u" horiz-adv-x="1312" 
d="M968 1121l192 32v-1121l-192 -32v237q-52 -112 -156.5 -176.5t-227.5 -60.5q-202 0 -325.5 105t-123.5 312v704l192 32v-736q0 -91 14 -158.5t46 -120t89.5 -79.5t139.5 -27q107 0 189.5 57t122.5 143.5t40 184.5v704z" />
    <glyph glyph-name="u" unicode="&#xfc;" horiz-adv-x="1312" 
d="M968 1121l192 32v-1121l-192 -32v237q-52 -112 -156.5 -176.5t-227.5 -60.5q-202 0 -325.5 105t-123.5 312v704l192 32v-736q0 -91 14 -158.5t46 -120t89.5 -79.5t139.5 -27q107 0 189.5 57t122.5 143.5t40 184.5v704z" />
    <glyph glyph-name="u" unicode="&#xfb;" horiz-adv-x="1312" 
d="M968 1121l192 32v-1121l-192 -32v237q-52 -112 -156.5 -176.5t-227.5 -60.5q-202 0 -325.5 105t-123.5 312v704l192 32v-736q0 -91 14 -158.5t46 -120t89.5 -79.5t139.5 -27q107 0 189.5 57t122.5 143.5t40 184.5v704z" />
    <glyph glyph-name="u" unicode="&#xfa;" horiz-adv-x="1312" 
d="M968 1121l192 32v-1121l-192 -32v237q-52 -112 -156.5 -176.5t-227.5 -60.5q-202 0 -325.5 105t-123.5 312v704l192 32v-736q0 -91 14 -158.5t46 -120t89.5 -79.5t139.5 -27q107 0 189.5 57t122.5 143.5t40 184.5v704z" />
    <glyph glyph-name="u" unicode="&#xf9;" horiz-adv-x="1312" 
d="M968 1121l192 32v-1121l-192 -32v237q-52 -112 -156.5 -176.5t-227.5 -60.5q-202 0 -325.5 105t-123.5 312v704l192 32v-736q0 -91 14 -158.5t46 -120t89.5 -79.5t139.5 -27q107 0 189.5 57t122.5 143.5t40 184.5v704z" />
    <glyph glyph-name="v" unicode="v" horiz-adv-x="1204" 
d="M1165 1139l-478 -963l31 -63l-158 -113l-513 1040l158 113l464 -941l467 941z" />
    <glyph glyph-name="w" unicode="w" horiz-adv-x="1845" 
d="M1806 1139l-478 -963l31 -63l-159 -113l-299 607l-214 -431l31 -63l-158 -113l-513 1040l158 113l464 -941l214 432l-195 396l158 113l145 -293l145 293l29 -14l-157 -315l302 -612l467 941z" />
    <glyph glyph-name="x" unicode="x" horiz-adv-x="1101" 
d="M1037 139l-125 -150l-415 495l-406 -484l-25 20l410 489l-415 494l125 150l416 -495l406 484l24 -20l-410 -489z" />
    <glyph glyph-name="y" unicode="y" horiz-adv-x="1146" 
d="M1072 1153l30 -11l-575 -1407q-28 -70 -99.5 -99t-142.5 -19t-112 44l30 63q27 -22 66 -39t83 -24t84 14t61 71l167 409l-122 -87l-495 972l158 113l481 -944z" />
    <glyph glyph-name="y" unicode="&#xff;" horiz-adv-x="1146" 
d="M1072 1153l30 -11l-575 -1407q-28 -70 -99.5 -99t-142.5 -19t-112 44l30 63q27 -22 66 -39t83 -24t84 14t61 71l167 409l-122 -87l-495 972l158 113l481 -944z" />
    <glyph glyph-name="y" unicode="&#xfd;" horiz-adv-x="1146" 
d="M1072 1153l30 -11l-575 -1407q-28 -70 -99.5 -99t-142.5 -19t-112 44l30 63q27 -22 66 -39t83 -24t84 14t61 71l167 409l-122 -87l-495 972l158 113l481 -944z" />
    <glyph glyph-name="z" unicode="z" horiz-adv-x="1124" 
d="M1047 1121v-32l-769 -865q1 -8 5 -21t23.5 -46t48 -58t84.5 -46t128 -21t133.5 19.5t103 50.5t74.5 68.5t52 75t31.5 68.5t16.5 50l5 20l64 -96q-2 -6 -6.5 -16.5t-22.5 -40.5t-41.5 -57t-65.5 -60t-92.5 -57t-124.5 -40.5t-159 -16.5q-72 0 -135.5 10.5t-107.5 27.5
t-81 37.5t-59.5 41t-38 37.5t-21.5 28l-6 10v32l769 865h-577v-128l-192 -32v192l192 32v-32h769z" />
    <glyph glyph-name="braceleft" unicode="{" horiz-adv-x="667" 
d="M603 -352h64v-32h-64q-288 0 -288 544q0 449 -192 449v32q192 0 192 448q0 545 288 545h64v-32h-64q-46 0 -75.5 -77.5t-41 -187.5t-11.5 -248q0 -163 -46.5 -293t-120.5 -171q74 -41 120.5 -171.5t46.5 -293.5q0 -138 11.5 -248t41 -187t75.5 -77z" />
    <glyph glyph-name="braceright" unicode="}" horiz-adv-x="667" 
d="M352 1089q0 -448 193 -448v-32q-193 0 -193 -449q0 -544 -288 -544h-64v32h64q46 0 75.5 77t41 187t11.5 248q0 163 47 293.5t121 171.5q-74 41 -121 171t-47 293q0 138 -11.5 248t-41 187.5t-75.5 77.5h-64v32h64q288 0 288 -545z" />
    <glyph glyph-name="nonbreakingspace" unicode="&#xa0;" horiz-adv-x="675" 
 />
    <glyph glyph-name="cent" unicode="&#xa2;" horiz-adv-x="1255" 
d="M1132 160q-152 -132 -352 -155v-229l-192 -32v267q-203 36 -326 181.5t-123 384.5t123 384t326 181v236l192 32v-260q160 -11 288 -96l-62 -132q-58 91 -152 143.5t-202 55.5q-74 0 -131.5 -32.5t-92 -84.5t-57 -125.5t-31 -146.5t-8.5 -155q0 -111 28.5 -204t74 -154.5
t105 -104.5t120 -62.5t120.5 -19.5q98 7 182.5 58t137.5 134z" />
    <glyph glyph-name="sterling" unicode="&#xa3;" horiz-adv-x="1480" 
d="M507 769v-737h833v-32h-1217v32h192v737h-192v32h192v32q0 90 19.5 180t66.5 180t116 158.5t176 111.5t239 43q272 0 431 -92l-56 -123q-131 183 -415 183q-73 0 -132 -23t-98.5 -60t-68.5 -93t-45.5 -112t-26 -128t-12 -129.5t-2.5 -127.5h609v-32h-609z" />
    <glyph glyph-name="yen" unicode="&#xa5;" horiz-adv-x="1536" 
d="M862 545h481v-32h-481v-257h481v-32h-481v-192l-192 -32v224h-480v32h480v208l-28 49h-452v32h433l-488 838l150 123l550 -944l544 943l28 -16z" />
    <glyph glyph-name="copyright" unicode="&#xa9;" horiz-adv-x="1824" 
d="M912 1506q127 0 240 -27t210.5 -85t168 -143.5t110.5 -208.5t40 -273q0 -187 -61.5 -335.5t-167.5 -242t-244 -142.5t-296 -49t-296 49t-244 142.5t-167.5 242t-61.5 335.5q0 150 40 273t110.5 208.5t168 143.5t210.5 85t240 27zM976 32q93 0 171 30t133 83.5t96 123
t65.5 153.5t36 170t11.5 177q0 124 -27.5 230t-75 181.5t-109.5 133t-135 92t-146.5 51.5t-147.5 17q-111 0 -200 -40t-146.5 -106.5t-95.5 -158.5t-54 -191t-16 -209q0 -148 39 -273t103 -209t148 -143t172.5 -85.5t177.5 -26.5zM1012 375q68 5 127 40t96 93l22 -44
q-126 -107 -289 -112q-113 0 -202 43.5t-143.5 136t-54.5 221.5t54 221t143 135.5t203 43.5q133 3 245 -69l-43 -91q-40 63 -105.5 99.5t-140.5 38.5q-64 0 -109.5 -33t-69 -90t-34 -119.5t-10.5 -135.5q0 -95 29.5 -170.5t76.5 -119t100 -66t105 -22.5z" />
    <glyph glyph-name="guillemotleft" unicode="&#xab;" horiz-adv-x="749" 
d="M399 379l-65 -51l-223 281l223 280l65 -51l-183 -229zM633 379l-65 -51l-223 281l223 280l65 -51l-182 -229z" />
    <glyph glyph-name="softhyphen" unicode="&#xad;" horiz-adv-x="0" 
 />
    <glyph glyph-name="registered" unicode="&#xae;" horiz-adv-x="1824" 
d="M912 1506q127 0 240 -27t210.5 -85t168 -143.5t110.5 -208.5t40 -273q0 -187 -61.5 -335.5t-167.5 -242t-244 -142.5t-296 -49t-296 49t-244 142.5t-167.5 242t-61.5 335.5q0 150 40 273t110.5 208.5t168 143.5t210.5 85t240 27zM976 32q93 0 171 30t133 83.5t96 123
t65.5 153.5t36 170t11.5 177q0 124 -27.5 230t-75 181.5t-109.5 133t-135 92t-146.5 51.5t-147.5 17q-111 0 -200 -40t-146.5 -106.5t-95.5 -158.5t-54 -191t-16 -209q0 -148 39 -273t103 -209t148 -143t172.5 -85.5t177.5 -26.5zM1012 1153q115 0 180 -73.5t65 -193.5
l-134 -22q0 47 -5.5 89.5t-19 85t-41.5 67.5t-67 25q-81 0 -141 -82.5t-60 -184.5v-489l-133 -23v757l133 22v-131q25 70 87 112t136 41z" />
    <glyph glyph-name="guillemotright" unicode="&#xbb;" horiz-adv-x="751" 
d="M405 609l-223 -281l-65 51l183 230l-183 229l65 51zM640 609l-224 -281l-65 51l183 230l-183 229l65 51z" />
    <glyph glyph-name="Acircumflex" unicode="&#xc2;" horiz-adv-x="1454" 
d="M712 1762q-11 -14 -28.5 -35.5t-60.5 -57t-71 -35.5l-32 64q57 0 107.5 25.5t84.5 70.5q90 -54 192 -64v-32q-104 9 -192 64zM1259 -1l-233 512q-114 -5 -256.5 -35.5t-283 -59.5t-257.5 -31l-173 -388l-29 13l607 1364l-9 21l27 20l131 96l634 -1397zM243 417
q138 4 390 61.5t379 64.5l-360 792z" />
    <glyph glyph-name="Ccedilla" unicode="&#xc7;" horiz-adv-x="1486" 
d="M1433 219q-143 -143 -336 -190q-131 -40 -181.5 -127.5t-50.5 -221.5l-96 64q0 102 41.5 160.5t131.5 98.5q-38 -3 -77 -3q-158 0 -296 49t-244 142.5t-167.5 242t-61.5 335.5q0 150 40 273t110.5 208.5t168 143.5t210.5 85t240 27q261 6 476 -140l-56 -130
q-88 111 -215 174t-269 64q-111 0 -200 -40t-146.5 -106.5t-95.5 -158.5t-54 -191t-16 -209q0 -148 39 -273t103 -209t148 -143t172.5 -85.5t177.5 -26.5q144 4 265 81.5t184 206.5z" />
    <glyph glyph-name="Ecircumflex" unicode="&#xca;" horiz-adv-x="1220" 
d="M675 1762q-4 -5 -11 -13.5t-27 -31t-39 -39t-42.5 -30.5t-41.5 -14l-32 64q57 0 108 25t85 71q90 -54 192 -64v-32q-104 9 -192 64zM963 1474l192 32v-192l-192 -33v161h-609v-672q81 5 185 37t205.5 61t186.5 29v-32q-85 0 -186.5 -29t-205.5 -61t-185 -37v-674h609v64
l192 32v-128l-192 -32v32h-609l-192 -32v1474l192 32v-32h609z" />
    <glyph glyph-name="Ocircumflex" unicode="&#xd4;" horiz-adv-x="1730" 
d="M801 1762q-11 -14 -28.5 -35.5t-60.5 -57t-71 -35.5l-32 64q57 0 107.5 25t84.5 71q90 -54 192 -64v-32q-104 9 -192 64zM865 1506q127 0 240 -27t210.5 -85t168 -143.5t110.5 -208.5t40 -273q0 -187 -61.5 -335.5t-167.5 -242t-244 -142.5t-296 -49t-296 49t-244 142.5
t-167.5 242t-61.5 335.5q0 150 40 273t110.5 208.5t168 143.5t210.5 85t240 27zM929 32q93 0 171 30t133 83.5t96 123t65.5 153.5t36 170t11.5 177q0 124 -27.5 230t-75 181.5t-109.5 133t-135 92t-146.5 51.5t-147.5 17q-111 0 -200 -40t-146.5 -106.5t-96 -158.5
t-54.5 -191t-16 -209q0 -148 39 -273t103.5 -209t148.5 -143t172.5 -85.5t177.5 -26.5z" />
    <glyph glyph-name="multiply" unicode="&#xd7;" horiz-adv-x="1013" 
d="M891 1063l-294 -294l294 -295l-91 -90l-294 294l-295 -294l-90 90l294 295l-294 294l90 91l295 -294l294 294z" />
    <glyph glyph-name="acircumflex" unicode="&#xe2;" 
d="M643 1409q-11 -14 -28.5 -35.5t-60.5 -57t-71 -35.5l-32 65q57 0 107.5 25.5t84.5 70.5q90 -54 192 -64v-33q-104 9 -192 64zM1059 1121l193 32v-1121l-193 -32v124q-170 -130 -384 -124q-121 0 -225 37t-183 107t-124 181.5t-45 251.5t45 251.5t124 181.5t182.5 106.5
t225.5 36.5q214 6 384 -124v92zM739 32q96 4 180.5 50.5t139.5 125.5v706q-88 94 -204 147.5t-244 59.5q-74 0 -131.5 -32.5t-92 -84.5t-57 -125.5t-31 -146.5t-8.5 -155q0 -111 28.5 -204t74 -154.5t105 -104.5t120 -62.5t120.5 -19.5z" />
    <glyph glyph-name="ccedilla" unicode="&#xe7;" horiz-adv-x="1153" 
d="M1091 160q-97 -88 -224 -126q-68 -21 -114 -56t-69 -83.5t-32 -98.5t-9 -116l-96 64q0 99 40 158t125 100q-26 -2 -37 -2q-121 0 -225 37t-183 107t-124 181.5t-45 251.5t45 251.5t124 181.5t182.5 106.5t225.5 36.5q192 5 352 -99l-61 -132q-58 91 -152.5 143.5
t-202.5 55.5q-74 0 -131.5 -32.5t-92 -84.5t-57 -125.5t-31 -146.5t-8.5 -155q0 -111 28.5 -204t74 -154.5t105 -104.5t120 -62.5t120.5 -19.5q98 7 182.5 58t137.5 134z" />
    <glyph glyph-name="ecircumflex" unicode="&#xea;" horiz-adv-x="1300" 
d="M633 1409q-4 -5 -11 -13.5t-27 -31t-39 -39t-42.5 -30.5t-41.5 -14l-32 65q57 0 107.5 25.5t84.5 70.5q90 -53 193 -64v-33q-104 9 -192 64zM739 32q99 8 183 58.5t137 133.5l32 -64q-70 -70 -191.5 -115t-224.5 -45q-237 0 -395.5 132.5t-178.5 379.5q-3 32 -3 65
q0 140 45 251.5t124 181.5t182.5 106.5t225.5 36.5q34 0 51 -1q6 0 18 -2q5 0 15.5 -1t15.5 -2q3 -1 10.5 -2t11.5 -2q7 -1 26 -5q4 -1 11.5 -2.5t11.5 -2.5t11.5 -3t11.5 -3q8 -2 24 -8q14 -4 21 -7q4 -2 11.5 -5t11.5 -5q3 -1 9.5 -3.5t9.5 -4.5q16 -8 23 -12
q12 -6 18 -10l21 -12q2 -1 5 -3.5t4 -3.5q88 -61 143.5 -151.5t70.5 -196.5h-182q-91 0 -197 -18.5t-188 -41.5t-188.5 -43.5t-194.5 -23.5v-1q0 -111 28.5 -204t74 -154.5t105 -104.5t120 -62.5t120.5 -19.5zM611 1121q-88 0 -152 -44t-98.5 -120.5t-51 -161.5t-18.5 -185
q108 4 242 34.5t266.5 60t242.5 31.5q-21 103 -79 189q-13 20 -33 43l-7 7q-10 11 -30 31q-2 2 -5.5 5t-4.5 4q-26 22 -38 30q-1 0 -1 1q-13 9 -41 25q-2 1 -5.5 2.5t-5.5 2.5q-11 6 -35 16l-9 3q-28 10 -42 14q-2 1 -5 1t-4 1q-5 1 -10.5 2t-12.5 2t-11 2q-8 2 -11 2
q-13 2 -41 2z" />
    <glyph glyph-name="ocircumflex" unicode="&#xf4;" horiz-adv-x="1351" 
d="M675 1153q122 0 225.5 -36.5t182.5 -106.5t124 -181.5t45 -251.5t-45 -251.5t-124 -181.5t-183 -107t-225 -37t-225 37t-183 107t-124 181.5t-45 251.5t45 251.5t124 181.5t182.5 106.5t225.5 36.5zM739 32q74 0 131.5 32.5t92 85t57 125.5t31 146.5t8.5 155.5
q0 111 -28.5 203.5t-74 154.5t-105 105t-120 62t-120.5 19q-74 0 -131.5 -32.5t-92 -84.5t-57 -125.5t-31 -146.5t-8.5 -155q0 -111 28.5 -204t74 -154.5t105 -104.5t120 -62.5t120.5 -19.5zM633 1409q-4 -5 -11 -13.5t-27 -31t-39 -39t-42.5 -30.5t-41.5 -14l-32 65
q57 0 107.5 25.5t84.5 70.5q90 -53 193 -64v-33q-104 9 -192 64z" />
    <glyph glyph-name="divide" unicode="&#xf7;" horiz-adv-x="1130" 
d="M565 1153q-40 0 -68.5 28t-28.5 68t28.5 68.5t68.5 28.5t68 -28.5t28 -68.5t-28 -68t-68 -28zM565 224q-40 0 -68.5 28t-28.5 68t28.5 68.5t68.5 28.5t68 -28.5t28 -68.5t-28 -68t-68 -28zM1045 705h-961v128h961v-128z" />
    <glyph glyph-name="Abreve" unicode="&#x102;" horiz-adv-x="1454" 
d="M712 1602q-59 0 -109.5 31.5t-50.5 96.5h32q0 -45 38 -70.5t90 -25.5q50 0 73 29t23 99l64 -32q0 -50 -45.5 -89t-114.5 -39zM1259 -1l-233 512q-114 -5 -256.5 -35.5t-283 -59.5t-257.5 -31l-173 -388l-29 13l607 1364l-9 21l27 20l131 96l634 -1397zM243 417
q138 4 390 61.5t379 64.5l-360 792z" />
    <glyph glyph-name="abreve" unicode="&#x103;" 
d="M643 1281q-59 0 -109.5 31.5t-50.5 96.5h32q0 -45 38 -70.5t90 -25.5q49 0 72.5 29.5t23.5 99.5l64 -33q0 -50 -45.5 -89t-114.5 -39zM1059 1121l193 32v-1121l-193 -32v124q-170 -130 -384 -124q-121 0 -225 37t-183 107t-124 181.5t-45 251.5t45 251.5t124 181.5
t182.5 106.5t225.5 36.5q214 6 384 -124v92zM739 32q96 4 180.5 50.5t139.5 125.5v706q-88 94 -204 147.5t-244 59.5q-74 0 -131.5 -32.5t-92 -84.5t-57 -125.5t-31 -146.5t-8.5 -155q0 -111 28.5 -204t74 -154.5t105 -104.5t120 -62.5t120.5 -19.5z" />
    <glyph glyph-name="Cacute" unicode="&#x106;" horiz-adv-x="1486" 
d="M865 1762q-88 -55 -96 -160h-32q0 7 0.5 18t6 42t14.5 58t28.5 57.5t46.5 48.5zM1378 320l55 -101q-114 -110 -262 -167t-306 -52q-158 0 -296 49t-244 142.5t-167.5 242t-61.5 335.5q0 150 40 273t110.5 208.5t168 143.5t210.5 85t240 27q261 6 476 -140l-56 -130
q-88 111 -215 174t-269 64q-111 0 -200 -40t-146.5 -106.5t-96 -158.5t-54.5 -191t-16 -209q0 -148 39 -273t103.5 -209t148.5 -143t172.5 -85.5t177.5 -26.5q144 4 265 81.5t184 206.5z" />
    <glyph glyph-name="cacute" unicode="&#x107;" horiz-adv-x="1150" 
d="M1059 224l32 -64q-70 -70 -191.5 -115t-224.5 -45q-121 0 -225 37t-183 107t-124 181.5t-45 251.5t45 251.5t124 181.5t182.5 106.5t225.5 36.5q191 5 352 -100l-61 -131q-58 91 -152.5 143.5t-202.5 55.5q-74 0 -131.5 -32.5t-92 -84.5t-57 -125.5t-31 -146.5t-8.5 -155
q0 -111 28.5 -204t74 -154.5t105 -104.5t120 -62.5t120.5 -19.5q98 7 182.5 58t137.5 134zM675 1409q-88 -55 -96 -160h-32q0 7 0.5 18t6 42t14.5 58.5t28.5 58t46.5 48.5z" />
    <glyph glyph-name="Ccaron" unicode="&#x10c;" horiz-adv-x="1486" 
d="M1017 1730q-57 0 -107.5 -25t-84.5 -71q-90 53 -193 64v32q104 -9 192 -64q4 5 11 13.5t27 31t39 39t42.5 30.5t41.5 14zM1378 320l55 -101q-114 -110 -262 -167t-306 -52q-158 0 -296 49t-244 142.5t-167.5 242t-61.5 335.5q0 150 40 273t110.5 208.5t168 143.5
t210.5 85t240 27q261 6 476 -140l-56 -130q-88 111 -215 174t-269 64q-111 0 -200 -40t-146.5 -106.5t-96 -158.5t-54.5 -191t-16 -209q0 -148 39 -273t103.5 -209t148.5 -143t172.5 -85.5t177.5 -26.5q144 4 265 81.5t184 206.5z" />
    <glyph glyph-name="ccaron" unicode="&#x10d;" horiz-adv-x="1150" 
d="M803 1378q-57 0 -107.5 -26t-84.5 -71q-92 55 -192 65v32q104 -9 192 -64q11 14 28.5 35.5t60.5 57t71 35.5zM1059 224l32 -64q-70 -70 -191.5 -115t-224.5 -45q-121 0 -225 37t-183 107t-124 181.5t-45 251.5t45 251.5t124 181.5t182.5 106.5t225.5 36.5q191 5 352 -100
l-61 -131q-58 91 -152.5 143.5t-202.5 55.5q-74 0 -131.5 -32.5t-92 -84.5t-57 -125.5t-31 -146.5t-8.5 -155q0 -111 28.5 -204t74 -154.5t105 -104.5t120 -62.5t120.5 -19.5q98 7 182.5 58t137.5 134z" />
    <glyph glyph-name="Dslash" unicode="&#x110;" horiz-adv-x="1556" 
d="M689 1506q127 0 240 -27t210.5 -85t168 -143.5t110.5 -208.5t40 -273q0 -188 -56.5 -336t-156.5 -241.5t-233 -142.5t-291 -49q-51 0 -139 8t-150 16l-63 8l-192 -32v737h-64v32h64v705l192 32h320zM753 32q93 0 171 30t133 83.5t96 123t65.5 153.5t36 170t11.5 177
q0 124 -27.5 230t-75 181.5t-109.5 133t-135 92t-146.5 51.5t-147.5 17h-256v-705h320v-32h-320v-673q256 -32 384 -32z" />
    <glyph glyph-name="dmacron" unicode="&#x111;" horiz-adv-x="1402" 
d="M1316 1281v-32h-64v-1217l-193 -32v124q-170 -130 -384 -124q-121 0 -225 37t-183 107t-124 181.5t-45 251.5t45 251.5t124 181.5t182.5 106.5t225.5 36.5q214 6 384 -124v220h-320v32h320v193l193 32v-225h64zM739 32q96 4 180.5 50.5t139.5 125.5v705q-88 94 -204 148
t-244 60q-74 0 -131.5 -32.5t-92 -84.5t-57 -125.5t-31 -146.5t-8.5 -155q0 -111 28.5 -204t74 -154.5t105 -104.5t120 -62.5t120.5 -19.5z" />
    <glyph glyph-name="Scaron" unicode="&#x160;" horiz-adv-x="1429" 
d="M895 1730q-57 0 -107.5 -25t-84.5 -71q-90 54 -192 64v32q104 -9 192 -64q11 14 28.5 35.5t60.5 57t71 35.5zM735 833q43 -6 87.5 -15t107 -26t117 -38.5t110.5 -54.5t96 -71.5t65.5 -91.5t25.5 -113q0 -124 -38 -206.5t-119.5 -130t-193 -67t-274.5 -19.5q-80 0 -153 9
t-128 23.5t-103 34t-82.5 40.5t-62.5 42t-45.5 40.5t-29 34t-16.5 23.5l-5 9l84 96q3 -7 10 -18.5t31.5 -44.5t53 -63.5t76 -67t99 -63.5t123 -45t148.5 -18q106 0 190 30.5t136 83.5t79 122t27 148q0 151 -122.5 251.5t-325.5 133.5q-28 5 -81 11t-96 11t-99.5 16
t-100.5 24.5t-89.5 36.5t-75 52t-48.5 72.5t-19 96.5q0 86 27.5 152t78 110t127.5 71.5t168.5 39.5t207.5 12q165 0 326 -34t251 -96l-97 -127q-56 84 -144 137t-168.5 70.5t-167.5 17.5q-187 0 -302 -98t-115 -255q0 -54 16.5 -96.5t47.5 -70.5t70 -48t89.5 -32.5
t100.5 -21.5t108 -17q4 0 6 -0.5t5 -1t6 -0.5z" />
    <glyph glyph-name="scaron" unicode="&#x161;" horiz-adv-x="1153" 
d="M769 1378q-57 0 -107.5 -26t-84.5 -71q-92 55 -193 65v32q104 -9 192 -64q4 5 11 13.5t27 31t39 39t42.5 30.5t41.5 14zM609 641q448 -90 448 -321q0 -95 -29 -158t-92 -98.5t-148 -49.5t-211 -14q-108 0 -197 20t-139 48t-85 56t-48 48l-12 20l64 96q5 -10 15.5 -27.5
t48.5 -61.5t82 -78t117 -61.5t154 -27.5q288 0 288 288q0 115 -80.5 189.5t-207.5 99.5q-19 4 -65.5 10t-86 12.5t-90 18t-90.5 29t-75 42t-54.5 61.5t-19.5 83q0 82 34 139t99.5 89t150 46t197.5 14q128 0 253.5 -26t194.5 -74l-62 -131q-68 92 -169.5 144.5t-216.5 54.5
q-142 0 -215.5 -67t-73.5 -189q0 -47 18 -82.5t36 -55t68 -37.5t71.5 -23t88.5 -18q26 -5 39 -8z" />
    <glyph glyph-name="Zcaron" unicode="&#x17d;" horiz-adv-x="1382" 
d="M875 1730q-57 0 -108 -25t-85 -71q-90 54 -192 64v32q104 -9 192 -64q4 5 11 13.5t27 31t39 39t42.5 30.5t41.5 14zM1323 1474v-32l-1057 -1154q55 -122 168.5 -192t247.5 -64q67 0 128 14.5t108.5 38.5t89.5 55t72.5 66t56 69.5t42 65.5t27.5 55t16 38l5 15l64 -97
q-3 -7 -10 -20t-33 -49.5t-57.5 -69.5t-86 -74t-116.5 -70t-151 -49t-187 -20q-85 0 -162.5 14t-134 36.5t-104.5 50t-79.5 55t-54 50t-31.5 36.5l-10 14v32l1057 1154h-865v-128l-192 -33v193l192 32v-32h1057z" />
    <glyph glyph-name="zcaron" unicode="&#x17e;" horiz-adv-x="1124" 
d="M759 1378q-57 0 -107.5 -26t-84.5 -71q-92 55 -193 65v32q104 -9 192 -64q4 5 11 13.5t27 31t39 39t42.5 30.5t41.5 14zM1047 1121v-32l-769 -865q1 -8 5 -21t23.5 -46t48 -58t84.5 -46t128 -21t133.5 19.5t103 50.5t74.5 68.5t52 75t31.5 68.5t16.5 50l5 20l64 -96
q-2 -6 -6.5 -16.5t-22.5 -40.5t-41.5 -57t-65.5 -60t-92.5 -57t-124.5 -40.5t-159 -16.5q-72 0 -135.5 10.5t-107.5 27.5t-81 37.5t-59.5 41t-38 37.5t-21.5 28l-6 10v32l769 865h-577v-128l-192 -32v192l192 32v-32h769z" />
    <glyph glyph-name="Ohorn" unicode="&#x1a0;" horiz-adv-x="1732" 
d="M1317 1392q150 -89 233.5 -245t83.5 -378q0 -187 -61.5 -335.5t-167.5 -242t-244 -142.5t-296 -49t-296 49t-244 142.5t-167.5 242t-61.5 335.5q0 150 40 273t110.5 208.5t168 143.5t210.5 85t240 27q209 3 399 -85q44 14 74.5 44.5t45 75t20.5 89t6 100.5l96 -64
q0 -226 -189 -274zM929 32q93 0 171 30t133 83.5t96 123t65.5 153.5t36 170t11.5 177q0 124 -27.5 230t-75 181.5t-109.5 133t-135 92t-146.5 51.5t-147.5 17q-111 0 -200 -40t-146.5 -106.5t-96 -158.5t-54.5 -191t-16 -209q0 -148 39 -273t103.5 -209t148.5 -143
t172.5 -85.5t177.5 -26.5z" />
    <glyph glyph-name="ohorn" unicode="&#x1a1;" horiz-adv-x="1355" 
d="M1043 1043q209 -155 209 -467q0 -140 -45 -251.5t-124 -181.5t-182.5 -106.5t-225.5 -36.5t-225.5 36.5t-182.5 106.5t-124 181.5t-45 251.5t45 251.5t124 181.5t183 107t225 37q170 3 319 -79q39 16 66 47t40 74t18 85.5t5 96.5l97 -64q0 -110 -43 -176.5t-134 -93.5z
M739 32q74 0 131.5 32.5t92 85t57 125.5t31 146.5t8.5 155.5q0 111 -28.5 203.5t-74 154.5t-105 105t-120 62t-120.5 19q-74 0 -131.5 -32.5t-92 -84.5t-57 -125.5t-31 -146.5t-8.5 -155q0 -111 28.5 -204t74 -154.5t105 -104.5t120 -62.5t120.5 -19.5z" />
    <glyph glyph-name="Uhorn" unicode="&#x1af;" horiz-adv-x="1652" 
d="M1649 1666q0 -123 -54 -192.5t-170 -88.5v-712q0 -90 -19.5 -180t-66.5 -180t-116 -158.5t-176 -111.5t-239 -43q-119 0 -215.5 16.5t-182 57.5t-143.5 105.5t-91 165t-33 232.5v897l193 32v-929q0 -264 131.5 -404.5t380.5 -140.5q73 0 132 23t98.5 60t68.5 93t45.5 112
t26 128t12 129.5t2.5 127.5v769l192 32v-79q128 55 128 303z" />
    <glyph glyph-name="uhorn" unicode="&#x1b0;" horiz-adv-x="1392" 
d="M1385 1314q0 -246 -225 -282v-1000l-192 -32v237q-52 -112 -156.5 -176.5t-227.5 -60.5q-202 0 -325.5 105t-123.5 312v704l192 32v-736q0 -91 14 -158.5t46 -120t89.5 -79.5t139.5 -27q107 0 189.5 57t122.5 143.5t40 184.5v704l192 32v-78q128 55 128 303z" />
    <glyph glyph-name="Iocyrillic" unicode="&#x401;" horiz-adv-x="1220" 
d="M931 1570q-40 0 -68 28t-28 68t28 68t68 28t68 -28t28 -68t-28 -68t-68 -28zM418 1570q-40 0 -68 28t-28 68t28 68t68 28t68 -28t28 -68t-28 -68t-68 -28zM963 1474l192 32v-192l-192 -33v161h-609v-672q81 5 185 37t205.5 61t186.5 29v-32q-85 0 -186.5 -29t-205.5 -61
t-185 -37v-674h609v64l192 32v-128l-192 -32v32h-609l-192 -32v1474l192 32v-32h609z" />
    <glyph glyph-name="Djecyrillic" unicode="&#x402;" horiz-adv-x="1669" 
d="M1056 897q88 0 166 -15t148 -49t120.5 -85t80 -127.5t29.5 -171.5q0 -222 -153.5 -327t-486.5 -119v33q120 11 209.5 50.5t140 98t74.5 124.5t24 140q0 183 -101 293.5t-251 122.5q-162 -3 -320 -55v-778l-193 -32v1442h-320v-128l-192 -33v193l192 32v-32h320l193 32
v-32h320l192 32v-192l-192 -33v161h-320v-600q158 52 320 55z" />
    <glyph glyph-name="Ecyrillic" unicode="&#x404;" horiz-adv-x="1452" 
d="M801 1474q-111 0 -200 -40t-146.5 -106.5t-95.5 -158.5t-54 -191t-16 -209q102 1 223.5 21.5t216 44t216 43t224.5 19.5v-32q-129 0 -284.5 -31t-311.5 -63t-283 -34q4 -142 45 -261t105 -199.5t146.5 -137t169 -82t173.5 -25.5q65 0 124 23t98.5 56.5t68 66.5t45 58
t17.5 25l55 -101q-160 -160 -472 -160q-158 0 -296 49t-244 142.5t-167.5 242t-61.5 335.5q0 150 40 273t110.5 208.5t168 143.5t210.5 85t240 27q124 0 271.5 -57t256.5 -134l-56 -98q-102 117 -242 184t-294 73z" />
    <glyph glyph-name="Dzecyrillic" unicode="&#x405;" horiz-adv-x="1429" 
d="M735 833q43 -6 87.5 -15t107 -26t117 -38.5t110.5 -54.5t96 -71.5t65.5 -91.5t25.5 -113q0 -124 -38 -206.5t-119.5 -130t-193 -67t-274.5 -19.5q-80 0 -153 9t-128 23.5t-103 34t-82.5 40.5t-62.5 42t-45.5 40.5t-29 34t-16.5 23.5l-5 9l84 96q3 -7 10 -18.5t31.5 -44.5
t53 -63.5t76 -67t99 -63.5t123 -45t148.5 -18q106 0 190 30.5t136 83.5t79 122t27 148q0 151 -122.5 251.5t-325.5 133.5q-28 5 -81 11t-96 11t-99.5 16t-100.5 24.5t-89.5 36.5t-75 52t-48.5 72.5t-19 96.5q0 86 27.5 152t78 110t127.5 71.5t168.5 39.5t207.5 12
q165 0 326 -34t251 -96l-97 -127q-56 84 -144 137t-168.5 70.5t-167.5 17.5q-187 0 -302 -98t-115 -255q0 -54 16.5 -96.5t47.5 -70.5t70 -48t89.5 -32.5t100.5 -21.5t108 -17q4 0 6 -0.5t5 -1t6 -0.5z" />
    <glyph glyph-name="Icyrillic" unicode="&#x406;" horiz-adv-x="516" 
d="M162 1474l192 32v-1474l-192 -32v1474z" />
    <glyph glyph-name="Yicyrillic" unicode="&#x407;" horiz-adv-x="518" 
d="M387 1602q-40 0 -68 28t-28 68t28 68t68 28t68 -28t28 -68t-28 -68t-68 -28zM131 1602q-40 0 -68 28t-28 68t28 68t68 28t68 -28t28 -68t-28 -68t-68 -28zM163 0v1474l192 32v-1474z" />
    <glyph glyph-name="Jecyrillic" unicode="&#x408;" horiz-adv-x="696" 
d="M349 1474l192 32v-1090q0 -416 -352 -416q-91 2 -160 64l64 64q1 -4 3.5 -10.5t11.5 -23t19.5 -29t27 -23t34.5 -10.5q91 0 125.5 86t34.5 266v1090z" />
    <glyph glyph-name="Ljecyrillic" unicode="&#x409;" horiz-adv-x="2158" 
d="M1544 897q88 0 166.5 -15t148.5 -49t120.5 -85t80 -127.5t29.5 -171.5q0 -238 -159.5 -343.5t-481.5 -105.5q-112 4 -224 32l-193 -32v1442h-646q-58 -391 -58 -1058q0 -184 -81.5 -284t-207.5 -100l-32 32q131 0 209.5 91t78.5 294q0 188 6.5 366.5t16 298t19.5 212.5
t16 136l7 44h672l193 32v-664q158 52 320 55zM1448 32q102 0 181.5 24t128.5 63.5t81 95t44.5 112.5t12.5 122q0 183 -101 293.5t-251 122.5q-162 -3 -320 -55v-746q112 -28 224 -32z" />
    <glyph glyph-name="Njecyrillic" unicode="&#x40a;" horiz-adv-x="2347" 
d="M1732 897q88 0 166.5 -15t148.5 -49t120 -85t79.5 -127.5t29.5 -171.5q0 -238 -159.5 -343.5t-481.5 -105.5q-112 4 -224 32l-192 -32v865q-101 0 -220.5 -20t-212 -44t-212 -44t-220.5 -20v-705l-192 -32v1474l192 32v-737q101 0 220.5 20t212 44t212 44t220.5 20v577
l192 32v-664q121 38 233 51q39 4 88 4zM1635 32q102 0 181.5 24t129 63.5t81.5 95t44.5 112.5t12.5 122q0 183 -101 293.5t-251 122.5q-40 0 -88 -5q-117 -13 -233 -50v-746q112 -28 224 -32z" />
    <glyph glyph-name="Tshecyrillic" unicode="&#x40b;" horiz-adv-x="1685" 
d="M1056 897q84 0 162.5 -15.5t148 -48.5t121.5 -81t82 -117.5t30 -153.5v-449l-192 -32v449q0 183 -101 293.5t-251 122.5q-162 -3 -320 -55v-778l-193 -32v1442h-320v-128l-192 -33v193l192 32v-32h320l193 32v-32h320l192 32v-192l-192 -33v161h-320v-600q158 52 320 55z
" />
    <glyph glyph-name="Ushortcyrillic" unicode="&#x40e;" horiz-adv-x="1337" 
d="M867 1730q-57 0 -107.5 -25.5t-84.5 -70.5q-90 53 -193 64v32q104 -9 192 -64q4 5 11 13.5t27 31t39 39t42.5 30.5t41.5 14zM1288 1505l27 -16l-787 -1363q-54 -97 -161 -121q-108 -24 -197 40l30 64q27 -22 65 -38t81.5 -21t85.5 17.5t68 74.5l226 391l-128 -104
l-555 954l151 123l549 -944z" />
    <glyph glyph-name="Dzhecyrillic" unicode="&#x40f;" horiz-adv-x="1579" 
d="M1221 1474l192 32v-1474h-384q-56 0 -97 -18.5t-65 -47.5t-38.5 -72.5t-19 -86t-4.5 -95.5l-97 64q0 193 139 256h-491l-192 -32v1474l192 32v-1442h865v1410z" />
    <glyph glyph-name="Acyrillic" unicode="&#x410;" horiz-adv-x="1456" 
d="M1261 -6l-233 513q-114 -5 -256.5 -36t-283 -60t-257.5 -31l-173 -388l-29 13l607 1365l-9 20l27 20l131 96l634 -1397zM245 412q138 4 390 61.5t379 64.5l-360 792z" />
    <glyph glyph-name="Becyrillic" unicode="&#x411;" horiz-adv-x="1626" 
d="M995 897q88 0 166 -15t148 -49t120.5 -85t80 -127.5t29.5 -171.5q0 -241 -183 -345t-586 -104q-72 0 -176 8t-172 16l-68 8l-192 -32v1474l192 32h1057v-193l-192 -32v193h-865v-702q77 6 163.5 27t151.5 42.5t153.5 38.5t172.5 17zM803 32q118 0 212.5 24t155.5 64
t101.5 94.5t57.5 112.5t17 122q0 183 -101 293.5t-251 122.5q-84 0 -172.5 -17t-153.5 -38.5t-151.5 -42.5t-163.5 -27v-676q286 -32 449 -32z" />
    <glyph glyph-name="Vecyrillic" unicode="&#x412;" horiz-adv-x="1632" 
d="M1200 873q156 -39 248.5 -144t92.5 -280q0 -241 -182.5 -345t-585.5 -104q-72 0 -176.5 8t-172.5 16l-68 8l-192 -32v1474l192 32h545q99 0 186.5 -17.5t162.5 -54.5t119 -103t44 -155q0 -137 -60.5 -209.5t-152.5 -93.5zM869 1474h-513v-702q106 8 298.5 64t314.5 60
l-4 1q121 0 188.5 80t67.5 208q0 74 -31.5 131.5t-83.5 91t-112 50t-125 16.5zM805 32q118 0 212.5 24t155.5 64t101.5 94.5t57.5 112.5t17 122q0 183 -101 293.5t-251 122.5q-84 0 -172.5 -17t-153.5 -38.5t-151.5 -42.5t-163.5 -27v-676q286 -32 449 -32z" />
    <glyph glyph-name="Gecyrillic" unicode="&#x413;" horiz-adv-x="1183" 
d="M963 1474l192 32v-193l-192 -32v161h-609v-1410l-192 -32v1474h801z" />
    <glyph glyph-name="Decyrillic" unicode="&#x414;" horiz-adv-x="1607" 
d="M1388 24h160v-193l-192 -32v193h-1154v-161l-192 -32v225h160q131 0 210 90.5t79 293.5q0 299 16 563.5t32 378.5l16 115h673l192 32v-1473zM330 24h866v1409h-646q-59 -397 -59 -1057q0 -132 -43.5 -221.5t-117.5 -130.5z" />
    <glyph glyph-name="Iecyrillic" unicode="&#x415;" horiz-adv-x="1220" 
d="M963 1474l192 32v-192l-192 -33v161h-609v-672q81 5 185 37t205.5 61t186.5 29v-32q-85 0 -186.5 -29t-205.5 -61t-185 -37v-674h609v64l192 32v-128l-192 -32v32h-609l-192 -32v1474l192 32v-32h609z" />
    <glyph glyph-name="Zhecyrillic" unicode="&#x416;" horiz-adv-x="2201" 
d="M1406 864q119 -4 224.5 -47.5t181.5 -112.5t136.5 -155t97 -179t55.5 -179t19 -159l-128 -32q0 50 -10 115t-32.5 144t-55.5 157t-84.5 152.5t-113.5 131.5t-147 93t-181 39l-177 -148v-652l-192 -32v693l-166 139q-96 -3 -181 -39t-147 -93t-113.5 -131.5t-84.5 -152
t-55.5 -157t-32.5 -144.5t-10 -115l-128 32q0 73 19 159t55.5 179t97 179t136.5 155t181.5 112.5t224.5 47.5l-736 617l21 25l919 -771v739l192 32v-781l930 781l21 -25z" />
    <glyph glyph-name="Zecyrillic" unicode="&#x417;" horiz-adv-x="1386" 
d="M985 891q140 -46 221.5 -147t81.5 -263q0 -121 -58 -215.5t-157.5 -151t-223.5 -85.5t-265 -29q-108 0 -204 17t-156 41.5t-104 49.5t-62 42l-19 17l42 84q99 -101 230 -157.5t273 -61.5q116 0 210.5 40.5t151.5 106t87.5 143.5t30.5 159q0 133 -54 229t-140 141.5
t-193 45.5h-222v32h263q128 0 205 66.5t77 189.5q0 76 -37 133t-102 90.5t-145 49.5t-174 16q-94 2 -181.5 -33.5t-154.5 -102.5l-42 84q5 3 14.5 9t46 20.5t80.5 25.5t119 20t160 9q608 0 608 -321q0 -130 -58.5 -200.5t-148.5 -93.5z" />
    <glyph glyph-name="Iicyrillic" unicode="&#x418;" horiz-adv-x="1579" 
d="M1221 1474l192 32v-1474l-192 -32v1150l-865 -1112v-6l-192 -32v1474l192 32v-1416l865 1112v272z" />
    <glyph glyph-name="Iishortcyrillic" unicode="&#x419;" horiz-adv-x="1579" 
d="M1029 1826l32 -128q-250 -38 -513 -32v64q99 0 184.5 10t137.5 24t90 28t54 24zM1221 1474l192 32v-1474l-192 -32v1150l-865 -1112v-6l-192 -32v1474l192 32v-1416l865 1112v272z" />
    <glyph glyph-name="Kacyrillic" unicode="&#x41a;" horiz-adv-x="1366" 
d="M569 864q119 -4 224.5 -47.5t181.5 -112.5t136.5 -155t97 -179t55.5 -179t19 -159l-128 -32q0 50 -10 115t-32.5 144t-55.5 157t-84.5 152.5t-113.5 131.5t-147 93t-181 39l-177 -148v-652l-192 -32v1474l192 32v-781l930 781l21 -25z" />
    <glyph glyph-name="Elcyrillic" unicode="&#x41b;" horiz-adv-x="1388" 
d="M1031 1474l193 32v-1474l-193 -32v1442h-646q-58 -391 -58 -1058q0 -184 -81.5 -284t-207.5 -100l-32 32q131 0 209.5 90.5t78.5 293.5q0 299 16 563.5t32 379.5l17 115h672z" />
    <glyph glyph-name="Emcyrillic" unicode="&#x41c;" horiz-adv-x="1835" 
d="M1477 1474l193 32v-1474l-193 -32v1401l-541 -937l20 -34l-56 -32l-544 943v-1309l-192 -32v1474l192 32v-37l562 -973l559 969v9z" />
    <glyph glyph-name="Encyrillic" unicode="&#x41d;" horiz-adv-x="1574" 
d="M1219 1474l192 32v-1474l-192 -32v865q-101 0 -220.5 -20t-212 -44t-212 -44t-220.5 -20v-705l-192 -32v1474l192 32v-737q101 0 220.5 20t212 44t212 44t220.5 20v577z" />
    <glyph glyph-name="Ocyrillic" unicode="&#x41e;" horiz-adv-x="1730" 
d="M865 1506q127 0 240 -27t210.5 -85t168 -143.5t110.5 -208.5t40 -273q0 -187 -61.5 -335.5t-167.5 -242t-244 -142.5t-296 -49t-296 49t-244 142.5t-167.5 242t-61.5 335.5q0 150 40 273t110.5 208.5t168 143.5t210.5 85t240 27zM929 32q93 0 171 30t133 83.5t96 123
t65.5 153.5t36 170t11.5 177q0 124 -27.5 230t-75 181.5t-109.5 133t-135 92t-146.5 51.5t-147.5 17q-111 0 -200 -40t-146.5 -106.5t-96 -158.5t-54.5 -191t-16 -209q0 -148 39 -273t103.5 -209t148.5 -143t172.5 -85.5t177.5 -26.5z" />
    <glyph glyph-name="Pecyrillic" unicode="&#x41f;" horiz-adv-x="1579" 
d="M1221 1474l192 32v-1474l-192 -32v1442h-865v-1410l-192 -32v1474l192 32v-32h865z" />
    <glyph glyph-name="Ercyrillic" unicode="&#x420;" horiz-adv-x="1406" 
d="M835 1506q96 0 186 -25t163.5 -71t118 -121.5t44.5 -167.5q0 -74 -28.5 -138t-76 -108.5t-109.5 -76t-130 -46.5t-136 -15h-513v-705l-192 -32v1474l192 32h481zM867 769q65 0 116 21t82.5 55t52.5 81t29 95t8 100q0 147 -103 250t-249 103h-449v-705h513z" />
    <glyph glyph-name="Escyrillic" unicode="&#x421;" horiz-adv-x="1486" 
d="M1378 320l55 -101q-114 -110 -262 -167t-306 -52q-158 0 -296 49t-244 142.5t-167.5 242t-61.5 335.5q0 150 40 273t110.5 208.5t168 143.5t210.5 85t240 27q261 6 476 -140l-56 -130q-88 111 -215 174t-269 64q-111 0 -200 -40t-146.5 -106.5t-96 -158.5t-54.5 -191
t-16 -209q0 -148 39 -273t103.5 -209t148.5 -143t172.5 -85.5t177.5 -26.5q144 4 265 81.5t184 206.5z" />
    <glyph glyph-name="Tecyrillic" unicode="&#x422;" horiz-adv-x="1277" 
d="M1056 1474l192 32v-193l-192 -32v161h-320v-1410l-193 -32v1442h-320v-129l-192 -32v193l192 32v-32h320l193 32v-32h320z" />
    <glyph glyph-name="Ucyrillic" unicode="&#x423;" horiz-adv-x="1337" 
d="M1288 1505l27 -16l-787 -1363q-54 -97 -161 -121q-108 -24 -197 40l30 64q27 -22 65 -38t81.5 -21t85.5 17.5t68 74.5l226 391l-128 -104l-555 954l151 123l549 -944z" />
    <glyph glyph-name="Efcyrillic" unicode="&#x424;" horiz-adv-x="2091" 
d="M1429 1506q121 0 225 -37t183 -107t124 -181.5t45 -251.5t-45 -251.5t-124 -181.5t-183 -107t-225 -37q-153 -2 -288 63v-383l-192 -32v415q-135 -65 -288 -63q-121 0 -225 37t-183 107t-124 181.5t-45 251.5t45 251.5t124 181.5t183 107t225 37q153 2 288 -63v31l192 32
v-63q135 65 288 63zM725 384q124 2 224 81v886q-158 114 -352 123q-74 0 -131.5 -32.5t-92.5 -85t-57.5 -125.5t-31 -146.5t-8.5 -155.5q0 -93 20 -173.5t54 -139t78.5 -104t95 -73t101.5 -41.5t100 -14zM1494 384q74 0 131.5 32.5t92 85t57 125.5t31 146.5t8.5 155.5
q0 93 -20 173.5t-54 139t-78.5 104t-95 73t-101.5 41.5t-100 14q-126 -2 -224 -80v-886q160 -115 353 -124z" />
    <glyph glyph-name="Khacyrillic" unicode="&#x425;" horiz-adv-x="1394" 
d="M1344 156l-117 -159l-582 693l-577 -688l-25 21l581 692l-530 631l118 159l537 -640l538 641l25 -21l-542 -645z" />
    <glyph glyph-name="Tsecyrillic" unicode="&#x426;" horiz-adv-x="1697" 
d="M1413 64h257v-32q-69 0 -115.5 -26.5t-69.5 -75t-31.5 -100t-8.5 -118.5l-96 64q0 193 139 256h-1132l-192 -32v1474l192 32v-1442h865v1410l192 32v-1442z" />
    <glyph glyph-name="Checyrillic" unicode="&#x427;" horiz-adv-x="1406" 
d="M1051 1474l192 32v-1474l-192 -32v481q-146 1 -266 11t-231.5 31.5t-194 58t-144.5 88.5t-93.5 125t-31.5 166v513l192 32v-513q0 -140 45.5 -233t145 -147t236.5 -76t342 -24v961z" />
    <glyph glyph-name="Shacyrillic" unicode="&#x428;" horiz-adv-x="2183" 
d="M1828 1474l192 32v-1474h-1666l-192 -32v1474l192 32v-1442h641v1410l192 32v-1442h641v1410z" />
    <glyph glyph-name="Shchacyrillic" unicode="&#x429;" horiz-adv-x="2330" 
d="M2022 64h288v-32q-56 0 -97 -18.5t-65 -47.5t-38.5 -72.5t-19 -86t-4.5 -95.5l-96 64q0 194 138 256h-1772l-192 -32v1474l192 32v-1442h641v1410l192 32v-1442h641v1410l192 32v-1442z" />
    <glyph glyph-name="Hardsigncyrillic" unicode="&#x42a;" horiz-adv-x="1806" 
d="M1192 897q88 0 166.5 -15t148.5 -49t120.5 -85t80 -127.5t29.5 -171.5q0 -241 -183 -345t-586 -104q-72 0 -176.5 8t-172.5 16l-68 8l-192 -32v1442q-56 0 -97 -18.5t-65 -48t-38.5 -73t-19 -86t-4.5 -95.5l-96 64q0 146 77 217.5t243 71.5l192 32v-734q77 6 163.5 27
t151.5 42.5t153.5 38.5t172.5 17zM1000 32q118 0 213 24t156 64t101.5 94.5t57.5 112.5t17 122q0 183 -101.5 293.5t-251.5 122.5q-84 0 -172.5 -17t-153.5 -38.5t-151.5 -42.5t-163.5 -27v-676q286 -32 449 -32z" />
    <glyph glyph-name="Yericyrillic" unicode="&#x42b;" horiz-adv-x="1957" 
d="M1603 1474l193 32v-1474l-193 -32v1474zM995 897q88 0 166 -15t148 -49t120.5 -85t80 -127.5t29.5 -171.5q0 -241 -183 -345t-586 -104q-72 0 -176 8t-172 16l-68 8l-192 -32v1474l192 32v-734q77 6 163.5 27t151.5 42.5t153.5 38.5t172.5 17zM803 32q118 0 212.5 24
t155.5 64t101.5 94.5t57.5 112.5t17 122q0 183 -101 293.5t-251 122.5q-84 0 -172.5 -17t-153.5 -38.5t-151.5 -42.5t-163.5 -27v-676q286 -32 449 -32z" />
    <glyph glyph-name="Softsigncyrillic" unicode="&#x42c;" horiz-adv-x="1607" 
d="M995 897q88 0 166.5 -15t148.5 -49t120 -85t79.5 -127.5t29.5 -171.5q0 -241 -183 -345t-586 -104q-72 0 -176 8t-172 16l-68 8l-192 -32v1474l192 32v-734q77 6 163.5 27t151.5 42.5t153.5 38.5t172.5 17zM803 32q118 0 212.5 24t155.5 64t101.5 94.5t57.5 112.5t17 122
q0 183 -101 293.5t-251 122.5q-84 0 -172.5 -17t-153.5 -38.5t-151.5 -42.5t-163.5 -27v-676q286 -32 449 -32z" />
    <glyph glyph-name="Ereversedcyrillic" unicode="&#x42d;" horiz-adv-x="1456" 
d="M589 1506q158 0 296 -49t244 -142.5t167.5 -242t61.5 -335.5q0 -150 -40 -273t-110.5 -208.5t-168 -143.5t-210.5 -85t-240 -27q-124 0 -271.5 57t-256.5 134l56 97q102 -116 242 -183t294 -73q111 0 200 40t146.5 106.5t96 158.5t54.5 191t16 209q0 65 -9 128
q-103 -1 -225.5 -21t-218 -44t-218 -43.5t-226.5 -19.5v32q104 0 226 19.5t217 43t217 44t224 21.5q-19 116 -66 213t-109.5 163t-139.5 112.5t-155.5 67.5t-157.5 21q-65 0 -124 -23t-98 -57t-68 -66.5t-45 -58t-17 -25.5l-56 102q160 160 472 160z" />
    <glyph glyph-name="IUcyrillic" unicode="&#x42e;" horiz-adv-x="2183" 
d="M1317 1506q127 0 240 -27t210.5 -85t168 -143.5t110.5 -208.5t40 -273q0 -187 -61.5 -335.5t-167.5 -242t-244 -142.5t-296 -49q-126 0 -239.5 30t-210 92.5t-167.5 152t-111 215t-41 274.5q-97 -18 -192 -24v-708l-192 -32v1474l192 32v-734q97 6 193 24q4 144 46 262.5
t112 200.5t166.5 138.5t207.5 82.5t236 26zM1381 32q93 0 171 30t133 83.5t96 123t65.5 153.5t36 170t11.5 177q0 124 -27.5 230t-75 181.5t-109.5 133t-135 92t-146.5 51.5t-147.5 17q-111 0 -200 -40t-146.5 -106.5t-96 -158.5t-54.5 -191t-16 -209q0 -148 39 -273
t103.5 -209t148.5 -143t172.5 -85.5t177.5 -26.5z" />
    <glyph glyph-name="IAcyrillic" unicode="&#x42f;" horiz-adv-x="1460" 
d="M1104 1474l192 32v-1474l-192 -32v737h-225q-99 0 -186.5 -29t-151 -77.5t-116 -113t-86.5 -133t-57 -140.5t-33 -132.5t-10 -111.5l-128 32q0 75 18.5 156t60 166t99.5 158.5t145 133.5t189 91h-32q-222 0 -351 98.5t-129 285.5q0 84 29.5 150.5t81 110t125 72
t157.5 40.5t183 12q216 6 417 -32zM591 769h513v673q-186 37 -385 32q-416 0 -416 -353q0 -52 8 -100t29 -95t52.5 -81t82.5 -55t116 -21z" />
    <glyph glyph-name="acyrillic" unicode="&#x430;" horiz-adv-x="1363" 
d="M1045 1121l192 32v-1121l-192 -32v124q-170 -130 -384 -124q-121 0 -225 37t-183 107t-124 181.5t-45 251.5t45 251.5t124 181.5t182.5 106.5t225.5 36.5q214 6 384 -124v92zM725 32q96 4 180.5 50.5t139.5 125.5v706q-88 94 -204 147.5t-244 59.5q-74 0 -131.5 -32.5
t-92.5 -84.5t-57.5 -125t-31 -146.5t-8.5 -155.5q0 -93 20 -173.5t54 -139t78.5 -104t95 -73t101.5 -41.5t100 -14z" />
    <glyph glyph-name="becyrillic" unicode="&#x431;" horiz-adv-x="1359" 
d="M695 1153q122 0 225.5 -36.5t182.5 -106.5t124 -181.5t45 -251.5t-45 -251.5t-124 -181.5t-183 -107t-225 -37t-225 37t-182.5 107t-123.5 181.5t-45 251.5q0 243 29.5 432.5t79 311.5t120 201t148 111.5t167.5 32.5q99 0 184.5 10t137.5 24t90 28t53 24l16 10l32 -128
q-250 -38 -513 -32q-94 0 -169.5 -37.5t-137 -119t-102 -220t-58.5 -331.5q73 127 203.5 193t295.5 66zM760 32q74 0 131.5 32.5t92 85t57 125.5t31 146.5t8.5 155.5q0 111 -28.5 203.5t-74.5 154.5t-105.5 105t-120 62t-120.5 19q-74 0 -131.5 -32.5t-92 -84.5t-57 -125.5
t-31 -146.5t-8.5 -155q0 -93 20 -173.5t54 -139t78.5 -104t95 -73t101.5 -41.5t100 -14z" />
    <glyph glyph-name="vecyrillic" unicode="&#x432;" horiz-adv-x="1333" 
d="M990 678q116 -36 186 -116.5t70 -209.5q0 -189 -145.5 -270.5t-462.5 -81.5q-170 6 -321 32l-192 -32v1121l192 32h449q78 0 148 -13.5t132 -42t99 -80t37 -120.5q0 -104 -55.5 -155t-136.5 -64zM317 1121v-416h481q192 0 192 192q0 58 -21.5 102.5t-58.5 70t-81.5 38.5
t-94.5 13h-417zM638 32q93 0 166 18t119 48t76.5 72.5t42.5 87t12 94.5q0 153 -81.5 237t-206.5 84h-449v-609q151 -26 321 -32z" />
    <glyph glyph-name="gecyrillic" unicode="&#x433;" horiz-adv-x="1021" 
d="M798 1121l192 32v-192l-192 -32v160h-481v-1057l-192 -32v1121h673z" />
    <glyph glyph-name="decyrillic" unicode="&#x434;" horiz-adv-x="1368" 
d="M703 1666q90 0 167.5 -32.5t148.5 -111.5t120.5 -201t79 -311.5t29.5 -432.5q0 -140 -45 -251.5t-124 -181.5t-183 -107t-225 -37t-225 37t-183 107t-124 181.5t-45 251.5t45 251.5t124 181.5t182.5 106.5t225.5 36.5q165 0 295.5 -66t203.5 -193q-18 193 -58.5 331.5
t-102 220t-137 119t-169.5 37.5q-99 0 -184.5 -16.5t-137.5 -40t-90 -47t-53 -40.5l-16 -16l-32 128q7 4 19.5 10.5t59.5 23t101.5 29t144 23t188.5 10.5zM735 32q74 0 131.5 32.5t92 85t57 125.5t31 146.5t8.5 155.5q0 111 -28.5 203.5t-74 154.5t-105 105t-120 62
t-120.5 19q-74 0 -131.5 -32.5t-92.5 -84.5t-57.5 -125t-31 -146.5t-8.5 -155.5q0 -93 20 -173.5t54 -139t78.5 -104t95 -73t101.5 -41.5t100 -14z" />
    <glyph glyph-name="iecyrillic" unicode="&#x435;" horiz-adv-x="1280" 
d="M725 32q98 7 182.5 58t137.5 134l32 -64q-70 -70 -191.5 -115t-225.5 -45q-237 0 -395 132.5t-178 379.5q-3 32 -3 65q0 140 45 251.5t124 181.5t182.5 106.5t225.5 36.5q16 0 50 -2q13 0 19 -1q5 0 15.5 -2t15.5 -2q4 0 11.5 -1t10.5 -2q7 -1 26 -5q4 -1 11.5 -2.5
t11.5 -2.5t11.5 -3t11.5 -3q8 -2 24 -8q11 -3 20 -7q4 -2 12 -5.5t12 -4.5q3 -1 9.5 -3.5t9.5 -4.5q8 -4 22 -12q3 -2 9 -5.5t9 -4.5l21 -12q1 -1 4.5 -3t5.5 -3v-1q88 -61 143.5 -151.5t70.5 -196.5h-182q-91 0 -197 -18.5t-188.5 -41.5t-189 -43.5t-194.5 -23.5v-1
q0 -93 20 -173.5t54 -139t78.5 -104t95 -73t101.5 -41.5t100 -14zM597 1121q-71 0 -127 -30t-91 -78t-58 -116.5t-32.5 -138t-11.5 -148.5q108 4 242 34.5t266.5 60t242.5 31.5q-21 100 -80 189q-17 26 -32 43l-7 7q-10 11 -30 31q-2 2 -5.5 5t-4.5 4q-26 22 -38 30l-1 1
q-8 6 -42 25q-2 1 -5.5 2.5t-5.5 2.5q-6 3 -34 16l-9 3q-28 10 -42 14q-1 1 -4 1t-5 1q-5 1 -10.5 2t-12.5 2t-11 2q-8 2 -12 2q-13 2 -40 2z" />
    <glyph glyph-name="zhecyrillic" unicode="&#x436;" horiz-adv-x="1710" 
d="M1106 670q93 -11 179.5 -63t148 -125t108.5 -156.5t70.5 -160t23.5 -133.5l-141 -32q0 42 -10 101.5t-30.5 131.5t-55.5 142t-79.5 128.5t-109.5 96t-139 40.5l-121 -101v-507l-192 -32v539l-120 101q-88 -3 -163 -56t-121.5 -129t-79.5 -165.5t-47 -163.5t-14 -126
l-140 32q0 57 23 133.5t70 160t108.5 156.5t148 125t179.5 63l-549 460l21 25l575 -482v-1l109 -91v540l192 32v-572l109 91v1h1l575 482l20 -25z" />
    <glyph glyph-name="zecyrillic" unicode="&#x437;" horiz-adv-x="1093" 
d="M752 678q116 -36 186 -116.5t70 -209.5q0 -92 -45 -162t-123 -110.5t-173 -60t-204 -19.5q-83 0 -157 13t-120.5 32t-81.5 38t-50 32l-15 13l32 64q80 -74 181.5 -115.5t210.5 -44.5q90 0 159.5 27t110.5 73t62 102t21 118q0 152 -81.5 236.5t-207.5 84.5h-168v32h200
q193 0 193 192q0 114 -87 169t-234 55q-151 3 -264 -96l-32 64q4 3 12 7t37 15t63.5 19.5t92.5 15.5t123 7q98 0 180.5 -13.5t152 -42t109 -80t39.5 -120.5q0 -104 -55.5 -155t-136.5 -64z" />
    <glyph glyph-name="iicyrillic" unicode="&#x438;" horiz-adv-x="1275" 
d="M958 1121l192 32v-1121l-192 -32v808l-641 -767v-9l-192 -32v1121l192 32v-1062l641 767v263z" />
    <glyph glyph-name="iishortcyrillic" unicode="&#x439;" horiz-adv-x="1277" 
d="M958 1121l192 32v-1121l-192 -32v808l-641 -767v-9l-192 -32v1121l192 32v-1062l641 767v263zM894 1474l32 -128q-250 -38 -513 -32v64q99 0 184.5 10t137.5 24t90 28t53 24z" />
    <glyph glyph-name="kacyrillic" unicode="&#x43a;" horiz-adv-x="1126" 
d="M524 668q93 -11 178 -63t145 -125t105 -156.5t67 -160t22 -133.5l-128 -30q0 42 -10 101.5t-30.5 131.5t-55.5 141.5t-79.5 128t-109.5 96t-139 40.5l-172 -145v-464l-192 -32v1122l192 32v-616l160 135h1l575 482l20 -24z" />
    <glyph glyph-name="elcyrillic" unicode="&#x43b;" horiz-adv-x="1191" 
d="M873 1121l192 32v-1121l-192 -32v1089h-516q-33 -346 -28 -705q0 -184 -81.5 -284t-207.5 -100l-32 32q131 0 210 91t79 294q-6 349 32 704h544z" />
    <glyph glyph-name="emcyrillic" unicode="&#x43c;" horiz-adv-x="1595" 
d="M1278 1121l192 32v-1121l-192 -32v1049l-461 -799l20 -35l-55 -32l-465 805v-956l-192 -32v1121l192 32v-37l482 -834l479 831v8z" />
    <glyph glyph-name="encyrillic" unicode="&#x43d;" horiz-adv-x="1275" 
d="M958 1121l192 32v-1121l-192 -32v737q-75 0 -163.5 -20t-157 -44t-157 -44t-163.5 -20v-577l-192 -32v1121l192 32v-512q75 0 163.5 20t157 44t157 44t163.5 20v352z" />
    <glyph glyph-name="ocyrillic" unicode="&#x43e;" horiz-adv-x="1323" 
d="M661 1153q121 0 225 -36.5t183 -107t123.5 -181.5t44.5 -251t-45 -251.5t-123.5 -181.5t-182.5 -107t-225 -37t-225 37t-183 107t-124 181.5t-45 251.5t45 251.5t124 181.5t182.5 106.5t225.5 36.5zM725 32q74 0 131.5 32.5t92 85t57 125.5t31 146.5t8.5 155.5
q0 111 -28.5 203.5t-74 154.5t-105 105t-120 62t-120.5 19q-74 0 -131.5 -32.5t-92.5 -84.5t-57.5 -125t-31 -146.5t-8.5 -155.5q0 -93 20 -173.5t54 -139t78.5 -104t95 -73t101.5 -41.5t100 -14z" />
    <glyph glyph-name="pecyrillic" unicode="&#x43f;" horiz-adv-x="1275" 
d="M958 1121l192 32v-1121l-192 -32v1089h-641v-1057l-192 -32v1121h833z" />
    <glyph glyph-name="ercyrillic" unicode="&#x440;" horiz-adv-x="1363" 
d="M702 1153q122 0 225.5 -36.5t182 -107t123.5 -181.5t45 -251t-45 -251.5t-123.5 -181.5t-182.5 -107t-225 -37q-215 -6 -385 124v-476l-192 -32v1473l192 32v-92q170 130 385 124zM766 32q74 0 131.5 32.5t92 85t57 125.5t31 146.5t8.5 155.5q0 111 -28.5 203.5
t-74 154.5t-105 105t-120 62t-120.5 19q-96 -4 -181 -50.5t-140 -125.5v-705q88 -94 204.5 -148t244.5 -60z" />
    <glyph glyph-name="escyrillic" unicode="&#x441;" horiz-adv-x="1126" 
d="M1045 224l32 -64q-70 -70 -191.5 -115t-224.5 -45q-121 0 -225 37t-183 107t-124 181.5t-45 251.5t45 251.5t124 181.5t182.5 106.5t225.5 36.5q192 5 352 -99l-62 -132q-58 91 -152 143.5t-202 55.5q-74 0 -131.5 -32.5t-92.5 -84.5t-57.5 -125t-31 -146.5t-8.5 -155.5
q0 -93 20 -173.5t54 -139t78.5 -104t95 -73t101.5 -41.5t100 -14q98 7 182.5 58t137.5 134z" />
    <glyph glyph-name="tecyrillic" unicode="&#x442;" horiz-adv-x="1058" 
d="M1042 1121v-32h-417v-1057l-192 -32v1089h-417v32h417l192 32v-32h417z" />
    <glyph glyph-name="ucyrillic" unicode="&#x443;" horiz-adv-x="1122" 
d="M1060 1153l29 -11l-574 -1407q-28 -70 -99.5 -99t-142.5 -19t-112 44l30 64q27 -22 66 -39t83 -24t84 14t61 71l167 409l-122 -88l-495 972l158 113l481 -944z" />
    <glyph glyph-name="efcyrillic" unicode="&#x444;" horiz-adv-x="2091" 
d="M1429 1153q122 0 225.5 -36.5t182.5 -106.5t124 -181.5t45 -251.5t-45 -251.5t-124 -181.5t-183 -107t-225 -37q-153 -2 -288 63v-415l-192 -32v447q-135 -65 -288 -63q-121 0 -225 37t-183 107t-124 181.5t-45 251.5t45 251.5t124 181.5t182.5 106.5t225.5 36.5
q153 2 288 -63v320l192 32v-352q135 65 288 63zM725 32q126 2 224 80v886q-158 114 -352 123q-74 0 -131.5 -32.5t-92.5 -84.5t-57.5 -125t-31 -146.5t-8.5 -155.5q0 -93 20 -173.5t54 -139t78.5 -104t95 -73t101.5 -41.5t100 -14zM1494 32q74 0 131.5 32.5t92 85t57 125.5
t31 146.5t8.5 155.5q0 111 -28.5 203.5t-74.5 154.5t-105.5 105t-120 62t-120.5 19q-126 -2 -224 -80v-886q158 -114 353 -123z" />
    <glyph glyph-name="khacyrillic" unicode="&#x445;" horiz-adv-x="1081" 
d="M1027 139l-125 -150l-415 495l-406 -484l-25 21l410 488l-415 494l125 150l415 -495l406 484l25 -20l-410 -488z" />
    <glyph glyph-name="tsecyrillic" unicode="&#x446;" horiz-adv-x="1431" 
d="M1150 64h256v-32q-56 0 -97 -18.5t-65 -47.5t-38.5 -72.5t-19 -86t-4.5 -95.5l-96 64q0 194 138 256h-907l-192 -32v1121l192 32v-1089h641v1057l192 32v-1089z" />
    <glyph glyph-name="checyrillic" unicode="&#x447;" horiz-adv-x="1193" 
d="M877 1121l192 32v-1121l-192 -32v352q-178 0 -305.5 13t-225 41.5t-155.5 77.5t-86.5 118.5t-28.5 166.5v352l192 32v-352q0 -65 3.5 -110.5t15 -89.5t30.5 -73t51.5 -55.5t76.5 -41.5t107 -26.5t142 -16t183 -4.5v737z" />
    <glyph glyph-name="shacyrillic" unicode="&#x448;" horiz-adv-x="1787" 
d="M1470 1121l193 32v-1121h-1346l-192 -32v1121l192 32v-1089h481v1057l192 32v-1089h480v1057z" />
    <glyph glyph-name="shchacyrillic" unicode="&#x449;" horiz-adv-x="1970" 
d="M1662 64h289v-32q-56 0 -97 -18.5t-65 -47.5t-38.5 -72.5t-19 -86t-4.5 -95.5l-96 64q0 194 138 256h-1452l-192 -32v1121l192 32v-1089h481v1057l192 32v-1089h480v1057l192 32v-1089z" />
    <glyph glyph-name="hardsigncyrillic" unicode="&#x44a;" horiz-adv-x="1445" 
d="M874 705q112 0 202.5 -19.5t161 -60.5t109.5 -110.5t39 -162.5t-44 -162.5t-121 -110t-172 -60t-207 -19.5q-150 -5 -288 32l-193 -32v1089q-69 0 -115.5 -26.5t-69 -75t-31 -100t-8.5 -118.5l-96 64q0 146 77 217t243 71l193 32v-495q104 47 320 47zM842 32q92 0 162 27
t110.5 73.5t60 101.5t19.5 118q0 157 -91.5 239t-260.5 82q-114 0 -190 -27.5t-98 -68.5v-513q138 -37 288 -32z" />
    <glyph glyph-name="yericyrillic" unicode="&#x44b;" horiz-adv-x="1531" 
d="M638 705q112 0 202.5 -19.5t161 -60.5t109.5 -110.5t39 -162.5t-44 -162.5t-121.5 -110t-172.5 -60t-207 -19.5q-150 -5 -288 32l-192 -32v1121l192 32v-495q104 47 321 47zM605 32h1q92 0 162 27t110.5 73.5t60 101.5t19.5 118q0 157 -92 239t-261 82q-114 0 -190 -27.5
t-98 -68.5v-513q138 -37 288 -32zM1214 1121l192 32v-1121l-192 -32v1121z" />
    <glyph glyph-name="softsigncyrillic" unicode="&#x44c;" horiz-adv-x="1210" 
d="M638 705q112 0 202.5 -19.5t161 -60.5t109.5 -110.5t39 -162.5t-44 -162.5t-121.5 -110t-172.5 -60t-207 -19.5q-150 -5 -288 32l-192 -32v1121l192 32v-495q104 47 321 47zM605 32h1q92 0 162 27t110.5 73.5t60 101.5t19.5 118q0 157 -92 239t-261 82q-114 0 -190 -27.5
t-98 -68.5v-513q138 -37 288 -32z" />
    <glyph glyph-name="ereversedcyrillic" unicode="&#x44d;" horiz-adv-x="1134" 
d="M474 1153q122 0 225.5 -36.5t182 -107t123.5 -181.5t45 -251t-45 -251.5t-123.5 -181.5t-182.5 -107t-225 -37q-91 0 -206 44t-211 116l32 64q45 -56 107.5 -96.5t126 -60t116 -27.5t99.5 -8q74 0 131.5 32.5t92 85t57 125.5t31 146.5t8.5 155.5q0 68 -10 128
q-73 -1 -160 -21.5t-154.5 -44t-154.5 -43t-161 -19.5v32q92 0 202 30.5t220.5 62.5t200.5 34q-22 97 -69.5 173t-108 121t-125.5 68t-128 23q-80 2 -147.5 -40.5t-99.5 -115.5l-42 89q160 104 353 99z" />
    <glyph glyph-name="iucyrillic" unicode="&#x44e;" horiz-adv-x="1779" 
d="M1118 1153q122 0 225.5 -36.5t182.5 -106.5t124 -181.5t45 -251.5t-45 -251.5t-124 -181.5t-183 -107t-225 -37t-225 36.5t-183 106.5t-124 181t-45 251q-116 -12 -170 -102t-54 -217v-224l-192 -32v1121l192 32v-665q39 55 98.5 86t127.5 33q7 177 86 302t204.5 184.5
t284.5 59.5zM1182 32q74 0 131.5 32.5t92 85t57 125.5t31 146.5t8.5 155.5q0 111 -28.5 203.5t-74 154.5t-105 105t-120 62t-120.5 19q-74 0 -131.5 -32.5t-92 -84.5t-57 -125.5t-31 -146.5t-8.5 -155q0 -111 28.5 -204t74 -154.5t105 -104.5t120 -62.5t120.5 -19.5z" />
    <glyph glyph-name="iacyrillic" unicode="&#x44f;" horiz-adv-x="1236" 
d="M919 1121l192 32v-1121l-192 -32v449h-256q-67 0 -123.5 -10.5t-97 -27t-72.5 -44t-52 -52.5t-34.5 -62.5t-21.5 -64t-11 -67.5t-4.5 -62.5t-0.5 -58.5l-128 32q0 49 10.5 97.5t36.5 99.5t65.5 93t102 78t141.5 56q-180 21 -284 105t-104 240q0 93 44 162.5t121.5 110
t172.5 60t207 19.5q150 5 288 -32zM919 481v608q-138 37 -288 32q-92 0 -162.5 -27t-110.5 -73.5t-60 -101.5t-20 -118q0 -157 91.5 -238.5t261.5 -81.5h288z" />
    <glyph glyph-name="iocyrillic" unicode="&#x451;" horiz-adv-x="1284" 
d="M908 1217q-40 0 -68 28.5t-28 68.5t28 68t68 28t68 -28t28 -68t-28 -68.5t-68 -28.5zM396 1217q-40 0 -68 28.5t-28 68.5t28 68t68 28t68 -28t28 -68t-28 -68.5t-68 -28.5zM727 32q98 7 182.5 58t137.5 134l32 -64q-70 -70 -191.5 -115t-224.5 -45q-237 0 -395.5 132.5
t-178.5 379.5q-3 32 -3 65q0 140 45 251.5t124 181.5t182.5 106.5t225.5 36.5q16 0 50 -2q13 0 19 -1q5 0 15.5 -2t15.5 -2q4 0 11 -1t11 -2q11 -1 26 -5q4 -1 11.5 -2.5t11.5 -2.5t11.5 -3t11.5 -3q8 -2 24 -8q11 -3 20 -7q4 -2 12 -5.5t12 -4.5q3 -1 9.5 -3.5t9.5 -4.5
q8 -4 22 -12q3 -2 9 -5.5t9 -4.5l21 -12q2 -1 5 -3t5 -3v-1q88 -61 143.5 -151.5t70.5 -196.5h-182q-91 0 -197 -18.5t-188.5 -41.5t-189 -43.5t-194.5 -23.5v-1q0 -93 20 -173.5t54 -139t78.5 -104t95 -73t101.5 -41.5t100 -14zM598 1121q-71 0 -126.5 -30t-90.5 -78
t-58 -116.5t-32.5 -138t-11.5 -148.5q108 4 242 34.5t266.5 60t242.5 31.5q-21 100 -80 189q-17 26 -32 43l-7 7q-10 11 -30 31q-1 2 -4.5 5t-5.5 4q-26 22 -38 30l-1 1q-8 6 -42 25q-2 1 -5.5 2.5t-5.5 2.5q-6 3 -34 16l-9 3q-28 10 -42 14q-2 1 -5 1t-4 1q-5 1 -10.5 2
t-12.5 2t-11 2q-8 2 -12 2q-13 2 -41 2z" />
    <glyph glyph-name="djecyrillic" unicode="&#x452;" horiz-adv-x="1318" 
d="M753 1153q202 0 325.5 -104.5t123.5 -311.5v-801q0 -159 -99 -239.5t-254 -80.5l-64 96q118 0 171.5 47t53.5 145v833q0 91 -14 158.5t-46 119.5t-89.5 79t-139.5 27q-81 0 -149 -33t-111.5 -87.5t-67.5 -122.5t-24 -141v-705l-192 -32v1249h-64v32h64v193l192 32v-225
h320v-32h-320v-333q52 112 156.5 176.5t227.5 60.5z" />
    <glyph glyph-name="ecyrillic" unicode="&#x454;" horiz-adv-x="1130" 
d="M661 1153q91 0 205.5 -44t210.5 -116l-32 -64q-45 56 -107 96.5t-126 60t-116 27.5t-99 8q-88 0 -152 -44t-98.5 -120.5t-51 -161.5t-18.5 -185q69 4 153.5 24.5t150 43t149 41t155.5 18.5v-32q-72 0 -156 -18.5t-149.5 -41t-149.5 -43t-154 -24.5v-1q0 -93 20 -173.5
t54 -139t78.5 -104t95 -73t101.5 -41.5t100 -14q80 -2 147 40.5t99 115.5l42 -88q-161 -105 -352 -100q-121 0 -225 37t-183 107t-124 181.5t-45 251.5t45 251.5t124 181.5t182.5 106.5t225.5 36.5z" />
    <glyph glyph-name="dzecyrillic" unicode="&#x455;" horiz-adv-x="1124" 
d="M594 641q449 -90 449 -321q0 -76 -20 -131.5t-57 -92t-97 -58t-133.5 -30t-173.5 -8.5q-78 0 -147 10.5t-116.5 27.5t-86.5 37.5t-62.5 41t-39.5 37.5t-22 28l-6 10l64 96q5 -10 15.5 -27.5t48 -61.5t81.5 -78t117 -61.5t154 -27.5q289 0 289 288q0 114 -80.5 188.5
t-208.5 100.5q-19 4 -65.5 10t-85.5 12.5t-90 18t-90.5 29t-74.5 42t-54.5 61.5t-19.5 83q0 82 33.5 139t99.5 89t150 46t197 14q128 0 254 -26t195 -73l-62 -132q-68 92 -170 144.5t-217 54.5q-142 0 -215 -67t-73 -189q0 -26 5.5 -48.5t12 -39.5t22 -32.5t26 -25.5
t35 -20.5t37 -15.5t43.5 -13t43.5 -10.5t48.5 -9.5t47 -9z" />
    <glyph glyph-name="icyrillic" unicode="&#x456;" horiz-adv-x="471" 
d="M139 0v1089l192 32v-1089zM235 1217q-40 0 -68 28.5t-28 68.5t28 68t68 28t68 -28t28 -68t-28 -68.5t-68 -28.5z" />
    <glyph glyph-name="yicyrillic" unicode="&#x457;" horiz-adv-x="587" 
d="M198 0v1089l192 32v-1089zM422 1217q-40 0 -68 28.5t-28 68.5t28 68t68 28t68 -28t28 -68t-28 -68.5t-68 -28.5zM166 1217q-40 0 -68 28.5t-28 68.5t28 68t68 28t68 -28t28 -68t-28 -68.5t-68 -28.5z" />
    <glyph glyph-name="jecyrillic" unicode="&#x458;" horiz-adv-x="475" 
d="M140 0v1089l192 32v-1089q0 -416 -352 -416q-91 2 -160 64l64 64q1 -4 3.5 -10.5t11.5 -23t19.5 -29t27 -23t34.5 -10.5q91 0 125.5 86t34.5 266zM236 1217q-40 0 -68 28.5t-28 68.5t28 68t68 28t68 -28t28 -68t-28 -68.5t-68 -28.5z" />
    <glyph glyph-name="ljecyrillic" unicode="&#x459;" horiz-adv-x="1957" 
d="M1386 705q112 0 202.5 -19.5t161 -60.5t109.5 -110.5t39 -162.5t-44 -162.5t-121 -110t-172 -60t-207 -19.5q-151 -5 -289 32l-192 -32v1089h-516q-33 -346 -28 -704q0 -185 -81.5 -285t-207.5 -100l-32 32q131 0 210 91t79 294q-6 349 32 704h544l192 32v-495
q104 47 321 47zM1354 32q92 0 162 27t110.5 73.5t60 101.5t19.5 118q0 157 -91.5 239t-260.5 82q-114 0 -190.5 -27.5t-98.5 -68.5v-513q138 -37 289 -32z" />
    <glyph glyph-name="njecyrillic" unicode="&#x45a;" horiz-adv-x="2043" 
d="M1470 705q112 0 202.5 -19.5t161.5 -60.5t110 -110.5t39 -162.5t-44 -162.5t-121.5 -110t-172.5 -60t-207 -19.5q-150 -5 -288 32l-192 -32v737q-75 0 -163.5 -20t-157 -44t-157 -44t-163.5 -20v-577l-192 -32v1121l192 32v-512q75 0 163.5 20t157 44t157 44t163.5 20
v352l192 32v-495q104 47 320 47zM1439 32q92 0 162 27t110.5 73.5t60 101.5t19.5 118q0 157 -91.5 239t-260.5 82q-114 0 -190.5 -27.5t-98.5 -68.5v-513q138 -37 289 -32z" />
    <glyph glyph-name="tshecyrillic" unicode="&#x45b;" horiz-adv-x="1316" 
d="M753 1153q202 0 325.5 -104.5t123.5 -311.5v-705l-192 -32v737q0 91 -14 158.5t-46 119.5t-89.5 79t-139.5 27q-81 0 -149 -33t-111.5 -87.5t-67.5 -122.5t-24 -141v-705l-192 -32v1249h-64v32h64v193l192 32v-225h320v-32h-320v-333q52 112 156.5 176.5t227.5 60.5z" />
    <glyph glyph-name="ushortcyrillic" unicode="&#x45e;" horiz-adv-x="1128" 
d="M835 1474l32 -128q-249 -38 -512 -32v64q99 0 184.5 10t137.5 24t89.5 28t53.5 24zM1062 1153l30 -11l-575 -1407q-28 -70 -99.5 -99t-142.5 -19t-112 44l30 64q27 -22 66 -39t83 -24t84 14t61 71l167 409l-122 -88l-495 972l158 113l481 -944z" />
    <glyph glyph-name="dzhecyrillic" unicode="&#x45f;" horiz-adv-x="1275" 
d="M958 1121l192 32v-1121h-256q-56 0 -97 -18.5t-65 -47.5t-38.5 -72.5t-19 -86t-4.5 -95.5l-97 64q0 193 139 256h-395l-192 -32v1121l192 32v-1089h641v1057z" />
    <glyph glyph-name="Gheupturncyrillic" unicode="&#x490;" horiz-adv-x="1183" 
d="M963 1698l192 32v-417l-192 -32v161h-609v-1410l-192 -32v1474h801v224z" />
    <glyph glyph-name="gheupturncyrillic" unicode="&#x491;" horiz-adv-x="1054" 
d="M806 1346l192 32v-417l-192 -32v160h-481v-1057l-192 -32v1121h673v225z" />
    <glyph glyph-name="Ghestrokecyrillic" unicode="&#x492;" horiz-adv-x="1202" 
d="M980 1474l192 32v-193l-192 -32v161h-609v-673h316v-32h-316v-705l-192 -32v737h-68v32h68v705h801z" />
    <glyph glyph-name="ghestrokecyrillic" unicode="&#x493;" horiz-adv-x="1044" 
d="M821 1121l193 32v-192l-193 -32v160h-480v-480h326v-32h-326v-545l-192 -32v577h-59v32h59v512h672z" />
    <glyph glyph-name="Zhedescendercyrillic" unicode="&#x496;" horiz-adv-x="2240" 
d="M2119 60q33 4 75 4v-32q-56 0 -97 -18.5t-65 -47.5t-38.5 -72.5t-19 -86t-4.5 -95.5l-96 64q0 180 118 246q-2 54 -13.5 119t-35.5 142.5t-58 152.5t-85 146t-112 125t-144 88t-176 37l-177 -148v-652l-192 -32v693l-166 139q-96 -3 -181 -39t-147 -93t-113.5 -131.5
t-84.5 -152t-55.5 -157t-32.5 -144.5t-10 -115l-128 32q0 73 19 159t55.5 179t97 179t136.5 155t181.5 112.5t224.5 47.5l-736 617l21 25l919 -771v739l192 32v-781l930 781l21 -25l-735 -617q138 -5 256.5 -62.5t198.5 -144t138.5 -194.5t86.5 -210t32 -193z" />
    <glyph glyph-name="zhedescendercyrillic" unicode="&#x497;" horiz-adv-x="1761" 
d="M1636 59q35 5 85 5v-32q-56 0 -97 -18.5t-65 -47.5t-38.5 -72.5t-19 -86t-4.5 -95.5l-96 64q0 187 127 251q-5 58 -24 131.5t-57.5 158t-89 154.5t-125.5 118t-159 51l-121 -101v-507l-192 -32v539l-120 101q-74 -3 -139 -40.5t-109.5 -96t-79.5 -128.5t-55.5 -142
t-30.5 -131.5t-10 -101.5l-141 32q0 57 23 133.5t70 160t108.5 156.5t148 125t179.5 63l-549 460l21 25l575 -482v-1l109 -91v540l192 32v-572l109 91v1h1l575 482l20 -25l-549 -460q110 -13 209.5 -83t165 -164t106 -191t47.5 -173z" />
    <glyph glyph-name="Zedescendercyrillic" unicode="&#x498;" horiz-adv-x="1386" 
d="M1288 481q0 -105 -43.5 -189.5t-120.5 -141.5t-175 -92t-215 -49q-55 -23 -92 -56.5t-56.5 -77t-27 -89.5t-7.5 -106l-96 64q0 100 41 158.5t128 98.5q-6 0 -19.5 -0.5t-20.5 -0.5q-108 0 -204 17t-156 41.5t-104 49.5t-62 42l-19 17l42 84q99 -101 230 -157.5t273 -61.5
q116 0 210.5 40.5t151.5 106t87.5 143.5t30.5 159q0 133 -54 229t-140 141.5t-193 45.5h-222v32h263q128 0 205 66.5t77 189.5q0 76 -37 133t-102 90.5t-145 49.5t-174 16q-94 2 -181.5 -33.5t-154.5 -102.5l-42 84q5 3 14.5 9t46 20.5t80.5 25.5t119 20t160 9
q608 0 608 -321q0 -130 -58.5 -200.5t-148.5 -93.5q141 -46 222 -146.5t81 -263.5z" />
    <glyph glyph-name="zedescendercyrillic" unicode="&#x499;" horiz-adv-x="1095" 
d="M1010 352q0 -132 -87 -213t-235 -115q-68 -21 -113 -54.5t-68.5 -80t-32.5 -95.5t-9 -114l-96 64q0 101 42 160t131 99q-38 -3 -77 -3q-83 0 -157 13t-120.5 32t-81.5 38t-50 32l-15 13l32 64q80 -74 181.5 -115.5t210.5 -44.5q90 0 159.5 27t110.5 73t62 102t21 118
q0 152 -81.5 236.5t-207.5 84.5h-168v32h200q193 0 193 192q0 114 -87 169t-234 55q-151 3 -264 -96l-32 64q4 3 12 7t37 15t63.5 19.5t92.5 15.5t123 7q98 0 180.5 -13.5t152 -42t109 -80t39.5 -120.5q0 -104 -55.5 -155t-136.5 -64q117 -35 186.5 -116t69.5 -210z" />
    <glyph glyph-name="Kabashkircyrillic" unicode="&#x4a0;" horiz-adv-x="1449" 
d="M654 864q119 -4 224.5 -47.5t181.5 -112.5t136.5 -155t97 -179t55.5 -179t19 -159l-128 -32q0 50 -10 115t-32.5 144t-55.5 157t-84.5 152.5t-113.5 131.5t-147 93t-181 39l-177 -148v-652l-192 -32v1353q-116 19 -170 88.5t-54 192.5l96 64q0 -248 128 -303v79l192 32
v-781l930 781l21 -25z" />
    <glyph glyph-name="kabashkircyrillic" unicode="&#x4a1;" horiz-adv-x="1288" 
d="M673 668q93 -11 179.5 -63t148 -125t108.5 -156.5t70 -160t23 -133.5l-96 -32q0 41 -13.5 101.5t-38.5 132t-65.5 142t-90.5 129t-118 96t-143 40.5l-171 -145v-464l-193 -32v1035q-116 19 -170 88.5t-54 192.5l96 64q0 -248 128 -303v45l193 32v-616l160 135v0l575 482
l21 -24z" />
    <glyph glyph-name="Endescendercyrillic" unicode="&#x4a2;" horiz-adv-x="1615" 
d="M1413 32h128v-32q-56 0 -97 -18.5t-65 -47.5t-38.5 -72.5t-19 -86t-4.5 -95.5l-96 64q0 193 139 256h-139v865q-101 0 -220.5 -20t-212 -44t-212 -44t-220.5 -20v-705l-192 -32v1474l192 32v-737q101 0 220.5 20t212 44t212 44t220.5 20v577l192 32v-1474z" />
    <glyph glyph-name="endescendercyrillic" unicode="&#x4a3;" horiz-adv-x="1339" 
d="M1150 32h128v-32q-56 0 -97 -18.5t-65 -47.5t-38.5 -72.5t-19 -86t-4.5 -95.5l-96 64q0 194 138 256h-138v737q-75 0 -163.5 -20t-157 -44t-157 -44t-163.5 -20v-577l-192 -32v1121l192 32v-512q75 0 163.5 20t157 44t157 44t163.5 20v352l192 32v-1121z" />
    <glyph glyph-name="Ustraightcyrillic" unicode="&#x4ae;" horiz-adv-x="1323" 
d="M1302 1489l-545 -944h1v-513l-192 -32v464l-535 918l150 124l549 -944l545 943z" />
    <glyph glyph-name="ustraightcyrillic" unicode="&#x4af;" horiz-adv-x="1124" 
d="M1060 1153l30 -11l-414 -1013v-385q0 -61 -32 -92t-77 -27.5t-85 36.5l29 64q49 -41 91 -35t42 54v406l-114 -82l-495 972l158 113l481 -944z" />
    <glyph glyph-name="Shhacyrillic" unicode="&#x4ba;" horiz-adv-x="1525" 
d="M846 1153q166 0 290.5 -43t199.5 -138t75 -235v-705l-192 -32v737q0 179 -103.5 281.5t-309.5 102.5q-102 0 -189 -33t-143.5 -87t-88 -123t-31.5 -141v-705l-192 -32v1474l192 32v-606q55 111 184.5 182t307.5 71z" />
    <glyph glyph-name="shhacyrillic" unicode="&#x4bb;" horiz-adv-x="1302" 
d="M738 1153q202 0 325.5 -104.5t123.5 -311.5v-705l-192 -32v737q0 91 -14 158.5t-46 119.5t-89.5 79t-139.5 27q-81 0 -149 -33t-111.5 -87.5t-67.5 -122.5t-24 -141v-705l-192 -32v1474l192 32v-590q52 112 156.5 176.5t227.5 60.5z" />
    <glyph glyph-name="Schwacyrillic" unicode="&#x4d8;" horiz-adv-x="1693" 
d="M828 1506q127 0 240 -27t210.5 -85t168 -143.5t110.5 -208.5t40 -273q0 -187 -61.5 -335.5t-167.5 -242t-244 -142.5t-296 -49q-121 0 -230.5 28t-204 85.5t-165.5 140t-115 198t-52 253.5h191l1 4q0 -1 0.5 -2t0.5 -2q168 0 371 32l406 64t371 32q-8 134 -50.5 244
t-106.5 182.5t-145.5 122t-165.5 71t-170 21.5q-166 0 -281.5 -80.5t-166.5 -208.5l-58 118q104 102 251 152.5t319 50.5zM892 32q93 0 171 30t133 83.5t96 123t65.5 153.5t36 170t11.5 177q0 5 -0.5 16t-0.5 16q-134 0 -292 -20t-281.5 -44t-281.5 -44t-292 -20
q12 -129 56 -237t107.5 -181t143.5 -124.5t162.5 -75t165.5 -23.5z" />
    <glyph glyph-name="schwacyrillic" unicode="&#x4d9;" horiz-adv-x="1280" 
d="M1193 641q3 -32 3 -64q0 -140 -45 -251.5t-124 -181.5t-183 -107t-225 -37q-16 0 -50 2q-7 0 -19 2q-5 0 -15.5 1t-15.5 2q-4 1 -11 2t-11 1q-7 1 -26 5q-4 1 -11.5 3t-11.5 3t-11.5 3t-11.5 3q-16 4 -24 7q-11 3 -20 7q-4 1 -12 5t-12 5q-3 1 -9.5 3.5t-9.5 4.5
q-8 4 -22 12q-12 6 -18 10q-4 2 -11 6.5t-10 6.5q-2 1 -5 3t-5 3q-87 61 -143 152t-71 197h182q91 0 197 18.5t188.5 41.5t189 43.5t194.5 23.5v1q0 111 -28.5 203.5t-74.5 154.5t-105.5 105t-120 62t-120.5 19q-98 -7 -182.5 -58t-137.5 -134l-32 64q70 70 191.5 115
t224.5 45q237 0 395.5 -132.5t178.5 -379.5zM683 32q71 0 126.5 30t90.5 78.5t58 117t33 138t12 148.5q-108 -4 -242 -34.5t-266.5 -60.5t-242.5 -32q21 -101 80 -189q17 -26 32 -43q1 -1 3.5 -3t3.5 -4q10 -11 30 -31q1 -2 4.5 -5t5.5 -4q12 -11 38 -29l1 -1q8 -6 42 -25
q2 -1 5.5 -3t5.5 -3q6 -4 19 -9t15 -6q1 0 4 -2t5 -2q14 -5 42 -13q2 -1 5 -1t4 -1q9 -2 34 -7q4 -1 12 -1q19 -3 40 -3z" />
    <glyph glyph-name="Obarredcyrillic" unicode="&#x4e8;" horiz-adv-x="1730" 
d="M865 1506q127 0 240 -27t210.5 -85t168 -143.5t110.5 -208.5t40 -273q0 -187 -61.5 -335.5t-167.5 -242t-244 -142.5t-296 -49t-296 49t-244 142.5t-167.5 242t-61.5 335.5q0 150 40 273t110.5 208.5t168 143.5t210.5 85t240 27zM801 1474q-111 0 -200 -40t-146.5 -106.5
t-96 -158.5t-54.5 -191t-16 -209q134 0 292 19.5t281 43.5t281 44t291 21q-16 120 -61.5 219t-108.5 164.5t-141.5 110t-158.5 64t-162 19.5zM929 32q93 0 171 30t133 83.5t96 123t65.5 153.5t36 170t11.5 177q0 44 -5 96q-134 0 -292 -20t-281 -44t-281.5 -44t-292.5 -20
q4 -141 45 -260t105 -200t146.5 -137.5t169 -82t173.5 -25.5z" />
    <glyph glyph-name="obarredcyrillic" unicode="&#x4e9;" horiz-adv-x="1323" 
d="M661 1153q121 0 225 -36.5t183 -107t123.5 -181.5t44.5 -251t-45 -251.5t-123.5 -181.5t-182.5 -107t-225 -37t-225 37t-183 107t-124 181.5t-45 251.5t45 251.5t124 181.5t182.5 106.5t225.5 36.5zM597 1121q-88 0 -152 -44t-98.5 -120.5t-51 -161.5t-18.5 -185
q108 4 242 34.5t266.5 60t242.5 31.5q-22 97 -69.5 173t-108 121t-125.5 68t-128 23zM725 32q74 0 131.5 32.5t92 85t57 125.5t31 146.5t8.5 155.5q0 62 -11 128q-111 -1 -245 -31t-269 -61t-244 -35v-1q0 -93 20 -173.5t54 -139t78.5 -104t95 -73t101.5 -41.5t100 -14z" />
    <glyph glyph-name="endash" unicode="&#x2013;" horiz-adv-x="1132" 
d="M1043 553h-955v128h955v-128z" />
    <glyph glyph-name="quoteleft" unicode="&#x2018;" horiz-adv-x="409" 
d="M301 1474q-43 0 -66.5 -22.5t-28.5 -74.5q40 -1 68 -29t27 -68t-29 -67.5t-68 -27.5t-67.5 28t-27.5 68q0 100 49.5 162.5t142.5 62.5v-32z" />
    <glyph glyph-name="quoteright" unicode="&#x2019;" horiz-adv-x="409" 
d="M205 1506q40 0 68 -28t28 -68q0 -100 -49.5 -162.5t-142.5 -62.5v32q43 0 66.5 22.5t28.5 74.5q-40 0 -67.5 28t-27.5 68t28 68t68 28z" />
    <glyph glyph-name="quotedblleft" unicode="&#x201c;" horiz-adv-x="698" 
d="M109 1281q0 100 49.5 162.5t142.5 62.5v-32q-43 0 -66.5 -22.5t-28.5 -74.5q40 -1 68 -29t27 -68t-29 -67.5t-68 -27.5t-67.5 28t-27.5 68zM589 1474q-43 0 -66.5 -22.5t-28.5 -74.5q40 -1 68 -29t27 -68t-29 -67.5t-68 -27.5t-67.5 28t-27.5 68q0 100 49.5 162.5
t142.5 62.5v-32z" />
    <glyph glyph-name="quotedblright" unicode="&#x201d;" horiz-adv-x="698" 
d="M494 1506q40 0 68 -28t28 -68q0 -100 -49.5 -162.5t-142.5 -62.5v32q43 0 66 22.5t28 74.5q-40 0 -67.5 28t-27.5 68t28.5 68t68.5 28zM205 1506q40 0 68 -28t28 -68q0 -100 -49.5 -162.5t-142.5 -62.5v32q43 0 66.5 22.5t28.5 74.5q-40 0 -67.5 28t-27.5 68t28 68t68 28
z" />
    <glyph glyph-name="Euro" unicode="&#x20ac;" horiz-adv-x="1847" 
d="M1667 320l55 -101q-114 -110 -262 -167t-306 -52q-140 0 -265 39t-226 113t-170.5 191.5t-93.5 265.5h-278v32h273q-9 63 -9 128t9 128h-273v32h278q24 146 93.5 258t171.5 181t225.5 103.5t265.5 34.5q260 6 475 -140l-56 -130q-88 111 -215 174t-269 64
q-95 0 -173.5 -29t-134 -78.5t-96 -120t-64 -148.5t-34.5 -169h686v-32h-690q-6 -63 -6 -128t9 -128h687v-32h-683q19 -116 66 -213t109.5 -163t139.5 -112.5t155.5 -67.5t157.5 -21q144 4 264.5 81t183.5 207z" />
    <glyph glyph-name="uni20bd" unicode="&#x20bd;" horiz-adv-x="1642" 
d="M1033 737h-512v-213h520v-32h-520v-460l-193 -32v492h-199v32h199v213h-199v32h199v705l193 32h480q76 0 149.5 -15t139.5 -47t115.5 -76.5t79 -108.5t29.5 -138t-28.5 -138t-76.5 -108.5t-110 -76t-130 -46.5t-136 -15zM521 1474v-705h512q65 0 116 21t83 55t52.5 81
t29 95t8.5 100q0 147 -103 250t-250 103h-448z" />
    <glyph glyph-name="decyrillic.alt1" unicode="&#xf000;" horiz-adv-x="1335" 
d="M1166 26h96v-193l-193 -32v193h-864v-161l-193 -32v225h96q131 0 210 90.5t79 293.5q-6 350 32 705h544l193 32v-1121zM268 26h705v1057h-516q-33 -346 -28 -705q0 -132 -43.5 -221.5t-117.5 -130.5z" />
    </font>
</defs>
</svg>
