<svg xmlns="http://www.w3.org/2000/svg" width="21" height="22" viewBox="0 0 21 22" fill="none">
<path d="M6.76598 14.2011H6.76694C6.76774 14.2011 6.76854 14.201 6.76934 14.201H17.9238C18.1984 14.201 18.4399 14.0114 18.5153 13.7367L20.9763 4.77458C21.0293 4.58136 20.9921 4.37365 20.876 4.21328C20.7597 4.05291 20.5778 3.95855 20.3848 3.95855H5.34709L4.90729 1.89923C4.84465 1.60633 4.59503 1.39795 4.30664 1.39795H0.615234C0.275413 1.39795 0 1.68452 0 2.0381C0 2.39168 0.275413 2.67825 0.615234 2.67825H3.81317C3.89104 3.04317 5.91779 12.5331 6.03442 13.079C5.38058 13.3748 4.92187 14.0531 4.92187 14.8411C4.92187 15.9 5.74988 16.7616 6.76758 16.7616H17.9238C18.2636 16.7616 18.5391 16.475 18.5391 16.1214C18.5391 15.7678 18.2636 15.4813 17.9238 15.4813H6.76758C6.4284 15.4813 6.15234 15.194 6.15234 14.8411C6.15234 14.4887 6.42744 14.202 6.76598 14.2011V14.2011ZM19.5691 5.23885L17.4597 12.9207H7.26105L5.62042 5.23885H19.5691Z" fill="#222222"/>
<path d="M6.15234 18.6817C6.15234 19.7406 6.98035 20.6021 7.99805 20.6021C9.01575 20.6021 9.84375 19.7406 9.84375 18.6817C9.84375 17.6228 9.01575 16.7612 7.99805 16.7612C6.98035 16.7612 6.15234 17.6228 6.15234 18.6817ZM7.99805 18.0415C8.33723 18.0415 8.61328 18.3288 8.61328 18.6817C8.61328 19.0346 8.33723 19.3218 7.99805 19.3218C7.65887 19.3218 7.38281 19.0346 7.38281 18.6817C7.38281 18.3288 7.65887 18.0415 7.99805 18.0415Z" fill="#222222"/>
<path d="M14.8477 18.6817C14.8477 19.7406 15.6757 20.6021 16.6934 20.6021C17.7111 20.6021 18.5391 19.7406 18.5391 18.6817C18.5391 17.6228 17.7111 16.7612 16.6934 16.7612C15.6757 16.7612 14.8477 17.6228 14.8477 18.6817ZM16.6934 18.0415C17.0325 18.0415 17.3086 18.3288 17.3086 18.6817C17.3086 19.0346 17.0325 19.3218 16.6934 19.3218C16.3542 19.3218 16.0781 19.0346 16.0781 18.6817C16.0781 18.3288 16.3542 18.0415 16.6934 18.0415Z" fill="#222222"/>
</svg>