<svg xmlns="http://www.w3.org/2000/svg" width="22" height="23" viewBox="0 0 22 23" fill="none">
<path fill-rule="evenodd" clip-rule="evenodd" d="M16.0015 6.2772C16.0015 9.15046 13.7623 11.4797 11 11.4797C8.23777 11.4797 5.99851 9.15046 5.99851 6.2772C5.99851 3.40394 8.23777 1.07471 11 1.07471C13.7623 1.07471 16.0015 3.40394 16.0015 6.2772ZM14.001 6.27719C14.001 4.55323 12.6575 3.15569 11.0001 3.15569C9.34275 3.15569 7.99919 4.55323 7.99919 6.27719C7.99919 8.00114 9.34275 9.39868 11.0001 9.39868C12.6575 9.39868 14.001 8.00114 14.001 6.27719ZM20.893 20.3759L19.0024 16.4325C18.1545 14.6722 16.4239 13.5607 14.5311 13.5607H7.46893C5.57614 13.5607 3.84555 14.6722 2.99758 16.4325L1.10701 20.3759C0.950991 20.698 0.966419 21.0811 1.14778 21.3885C1.32915 21.6958 1.65058 21.8836 1.99728 21.8847H20.0027C20.3494 21.8836 20.6709 21.6958 20.8522 21.3885C21.0336 21.0811 21.049 20.698 20.893 20.3759ZM4.78818 17.3689L3.61782 19.8037H18.3823L17.2119 17.3689C16.7046 16.3118 15.667 15.6433 14.5311 15.6417H7.46899C6.33315 15.6433 5.29552 16.3118 4.78818 17.3689Z" fill="#222222"/>
<path d="M19.0024 16.4325L19.3406 16.2703L19.3403 16.2697L19.0024 16.4325ZM20.893 20.3759L20.5548 20.5381L20.5555 20.5394L20.893 20.3759ZM14.5311 13.5607L14.5311 13.1857H14.5311V13.5607ZM7.46893 13.5607L7.46893 13.1857L7.46892 13.1857L7.46893 13.5607ZM2.99758 16.4325L2.65974 16.2697L2.65943 16.2703L2.99758 16.4325ZM1.10701 20.3759L1.44449 20.5394L1.44516 20.5381L1.10701 20.3759ZM1.14778 21.3885L1.47075 21.1979L1.47075 21.1979L1.14778 21.3885ZM1.99728 21.8847L1.9961 22.2597H1.99728V21.8847ZM20.0027 21.8847V22.2597L20.0039 22.2597L20.0027 21.8847ZM20.8522 21.3885L20.5293 21.1979L20.5293 21.1979L20.8522 21.3885ZM3.61782 19.8037L3.27984 19.6412L3.02149 20.1787H3.61782V19.8037ZM4.78818 17.3689L5.12616 17.5314L5.12626 17.5312L4.78818 17.3689ZM18.3823 19.8037V20.1787H18.9786L18.7203 19.6412L18.3823 19.8037ZM17.2119 17.3689L16.8739 17.5312L16.874 17.5314L17.2119 17.3689ZM14.5311 15.6417L14.5317 15.2667H14.5311V15.6417ZM7.46899 15.6417L7.46899 15.2667L7.46846 15.2667L7.46899 15.6417ZM11 11.8547C13.9832 11.8547 16.3765 9.3435 16.3765 6.2772H15.6265C15.6265 8.95741 13.5414 11.1047 11 11.1047V11.8547ZM5.62351 6.2772C5.62351 9.3435 8.01687 11.8547 11 11.8547V11.1047C8.45866 11.1047 6.37351 8.95741 6.37351 6.2772H5.62351ZM11 0.699707C8.01687 0.699707 5.62351 3.2109 5.62351 6.2772H6.37351C6.37351 3.59699 8.45866 1.44971 11 1.44971V0.699707ZM16.3765 6.2772C16.3765 3.2109 13.9832 0.699707 11 0.699707V1.44971C13.5414 1.44971 15.6265 3.59699 15.6265 6.2772H16.3765ZM11.0001 3.53069C12.4366 3.53069 13.626 4.74628 13.626 6.27719H14.376C14.376 4.36019 12.8784 2.78069 11.0001 2.78069V3.53069ZM8.37419 6.27719C8.37419 4.74628 9.56364 3.53069 11.0001 3.53069V2.78069C9.12185 2.78069 7.62419 4.36019 7.62419 6.27719H8.37419ZM11.0001 9.02368C9.56364 9.02368 8.37419 7.8081 8.37419 6.27719H7.62419C7.62419 8.19419 9.12185 9.77368 11.0001 9.77368V9.02368ZM13.626 6.27719C13.626 7.8081 12.4366 9.02368 11.0001 9.02368V9.77368C12.8784 9.77368 14.376 8.19419 14.376 6.27719H13.626ZM18.6643 16.5946L20.5548 20.5381L21.2311 20.2138L19.3406 16.2703L18.6643 16.5946ZM14.5311 13.9357C16.274 13.9357 17.8765 14.9594 18.6646 16.5952L19.3403 16.2697C18.4324 14.3851 16.5737 13.1857 14.5311 13.1857L14.5311 13.9357ZM7.46893 13.9357H14.5311V13.1857H7.46893V13.9357ZM3.33542 16.5952C4.12346 14.9594 5.72602 13.9357 7.46894 13.9357L7.46892 13.1857C5.42627 13.1857 3.56764 14.3851 2.65974 16.2697L3.33542 16.5952ZM1.44516 20.5381L3.33573 16.5946L2.65943 16.2703L0.768859 20.2138L1.44516 20.5381ZM1.47075 21.1979C1.35341 20.999 1.34304 20.7489 1.44449 20.5394L0.769523 20.2124C0.558942 20.6471 0.579427 21.1632 0.824818 21.579L1.47075 21.1979ZM1.99846 21.5097C1.78874 21.509 1.58731 21.3954 1.47075 21.1979L0.824818 21.579C1.07098 21.9962 1.51242 22.2581 1.9961 22.2597L1.99846 21.5097ZM20.0027 21.5097H1.99728V22.2597H20.0027V21.5097ZM20.5293 21.1979C20.4127 21.3954 20.2113 21.509 20.0015 21.5097L20.0039 22.2597C20.4876 22.2581 20.929 21.9962 21.1752 21.579L20.5293 21.1979ZM20.5555 20.5394C20.657 20.7489 20.6466 20.999 20.5293 21.1979L21.1752 21.579C21.4206 21.1632 21.4411 20.6471 21.2305 20.2124L20.5555 20.5394ZM3.95581 19.9661L5.12616 17.5314L4.4502 17.2064L3.27984 19.6412L3.95581 19.9661ZM18.3823 19.4287H3.61782V20.1787H18.3823V19.4287ZM16.874 17.5314L18.0443 19.9661L18.7203 19.6412L17.5499 17.2064L16.874 17.5314ZM14.5306 16.0167C15.5166 16.0181 16.4263 16.5986 16.8739 17.5312L17.55 17.2066C16.9829 16.0251 15.8174 15.2685 14.5317 15.2667L14.5306 16.0167ZM7.46899 16.0167H14.5311V15.2667H7.46899V16.0167ZM5.12626 17.5312C5.57385 16.5986 6.48356 16.0181 7.46952 16.0167L7.46846 15.2667C6.18273 15.2685 5.01719 16.0251 4.4501 17.2066L5.12626 17.5312Z" fill="#F3F2ED"/>
</svg>