<svg xmlns="http://www.w3.org/2000/svg" width="21" height="22" viewBox="0 0 21 22" fill="none">
<path fill-rule="evenodd" clip-rule="evenodd" d="M15.6431 14.7545L19.8645 19.1531C20.053 19.3713 20.0437 19.7053 19.8434 19.9118L19.1047 20.6815C19.0056 20.7856 18.8707 20.8442 18.73 20.8442C18.5893 20.8442 18.4544 20.7856 18.3553 20.6815L14.1339 16.283C14.0172 16.1613 13.9112 16.0288 13.8173 15.8872L13.0258 14.7875C11.7162 15.8772 10.0898 16.4705 8.41388 16.47C4.96034 16.4825 1.95934 14.0002 1.18757 10.4928C0.415791 6.98535 2.07921 3.38882 5.19304 1.83244C8.30686 0.276066 12.0401 1.17522 14.1825 3.99757C16.3249 6.81992 16.3047 10.8122 14.1339 13.6109L15.1893 14.3697C15.3541 14.4796 15.5063 14.6087 15.6431 14.7545ZM3.13727 8.7723C3.13727 11.8088 5.49977 14.2704 8.41405 14.2704C9.81355 14.2704 11.1557 13.6912 12.1453 12.6601C13.1349 11.629 13.6908 10.2305 13.6908 8.7723C13.6908 5.73576 11.3283 3.27416 8.41405 3.27416C5.49977 3.27416 3.13727 5.73576 3.13727 8.7723Z" fill="#222222"/>
<path d="M19.8645 19.1531L20.1483 18.9079L20.1419 18.9005L20.1351 18.8934L19.8645 19.1531ZM15.6431 14.7545L15.3695 15.0111L15.3725 15.0142L15.6431 14.7545ZM19.8434 19.9118L19.5743 19.6507L19.5728 19.6521L19.8434 19.9118ZM19.1047 20.6815L18.8341 20.4219L18.833 20.423L19.1047 20.6815ZM18.3553 20.6815L18.627 20.423L18.6259 20.4219L18.3553 20.6815ZM14.1339 16.283L13.8633 16.5426L13.8634 16.5427L14.1339 16.283ZM13.8173 15.8872L14.1299 15.68L14.1259 15.6739L14.1217 15.6681L13.8173 15.8872ZM13.0258 14.7875L13.3301 14.5685L13.0952 14.242L12.7859 14.4993L13.0258 14.7875ZM8.41388 16.47L8.41399 16.095L8.41252 16.095L8.41388 16.47ZM1.18757 10.4928L0.821328 10.5734L0.821328 10.5734L1.18757 10.4928ZM5.19304 1.83244L5.02538 1.49701L5.02538 1.49701L5.19304 1.83244ZM14.1825 3.99757L13.8838 4.2243L13.8838 4.2243L14.1825 3.99757ZM14.1339 13.6109L13.8376 13.3811L13.5993 13.6884L13.915 13.9154L14.1339 13.6109ZM15.1893 14.3697L14.9702 14.6743L14.9812 14.6817L15.1893 14.3697ZM12.1453 12.6601L12.4159 12.9197L12.4159 12.9197L12.1453 12.6601ZM20.1351 18.8934L15.9136 14.4949L15.3725 15.0142L19.594 19.4127L20.1351 18.8934ZM20.1125 20.1729C20.4487 19.8265 20.4634 19.2726 20.1483 18.9079L19.5807 19.3982C19.6427 19.4699 19.6388 19.5842 19.5743 19.6507L20.1125 20.1729ZM19.3752 20.9412L20.114 20.1715L19.5728 19.6521L18.8341 20.4219L19.3752 20.9412ZM18.73 21.2192C18.9758 21.2192 19.2081 21.1167 19.3763 20.9401L18.833 20.423C18.803 20.4545 18.7656 20.4692 18.73 20.4692V21.2192ZM18.0837 20.9401C18.2519 21.1167 18.4842 21.2192 18.73 21.2192V20.4692C18.6944 20.4692 18.657 20.4545 18.627 20.423L18.0837 20.9401ZM13.8634 16.5427L18.0848 20.9412L18.6259 20.4219L14.4045 16.0234L13.8634 16.5427ZM13.5048 16.0944C13.6109 16.2545 13.7309 16.4045 13.8633 16.5426L14.4046 16.0235C14.3034 15.918 14.2115 15.803 14.1299 15.68L13.5048 16.0944ZM12.7214 15.0066L13.513 16.1062L14.1217 15.6681L13.3301 14.5685L12.7214 15.0066ZM8.41377 16.845C10.179 16.8455 11.8898 16.2205 13.2656 15.0758L12.7859 14.4993C11.5425 15.5339 10.0007 16.0954 8.41399 16.095L8.41377 16.845ZM0.821328 10.5734C1.62885 14.2432 4.7751 16.8581 8.41524 16.845L8.41252 16.095C5.14558 16.1068 2.28984 13.7572 1.55381 10.4122L0.821328 10.5734ZM5.02538 1.49701C1.75105 3.13361 0.0142985 6.90572 0.821328 10.5734L1.55381 10.4122C0.817283 7.06497 2.40738 3.64402 5.36069 2.16788L5.02538 1.49701ZM14.4812 3.77083C12.2326 0.808618 8.30482 -0.142146 5.02538 1.49701L5.36069 2.16788C8.3089 0.694279 11.8475 1.54181 13.8838 4.2243L14.4812 3.77083ZM14.4302 13.8408C16.7051 10.9079 16.7261 6.7283 14.4812 3.77083L13.8838 4.2243C15.9236 6.91154 15.9043 10.7166 13.8376 13.3811L14.4302 13.8408ZM15.4082 14.0652L14.3528 13.3065L13.915 13.9154L14.9704 14.6742L15.4082 14.0652ZM15.9166 14.4981C15.7604 14.3315 15.5862 14.1837 15.3973 14.0577L14.9812 14.6817C15.1219 14.7755 15.2522 14.886 15.3695 15.011L15.9166 14.4981ZM8.41405 13.8954C5.72125 13.8954 3.51227 11.6164 3.51227 8.7723H2.76227C2.76227 12.0013 5.27828 14.6454 8.41405 14.6454V13.8954ZM11.8748 12.4004C10.9542 13.3596 9.709 13.8954 8.41405 13.8954V14.6454C9.91809 14.6454 11.3572 14.0228 12.4159 12.9197L11.8748 12.4004ZM13.3158 8.7723C13.3158 10.1359 12.7958 11.4407 11.8748 12.4004L12.4159 12.9197C13.474 11.8172 14.0658 10.3251 14.0658 8.7723H13.3158ZM8.41405 3.64916C11.1069 3.64916 13.3158 5.92819 13.3158 8.7723H14.0658C14.0658 5.54332 11.5498 2.89916 8.41405 2.89916V3.64916ZM3.51227 8.7723C3.51227 5.92819 5.72125 3.64916 8.41405 3.64916V2.89916C5.27828 2.89916 2.76227 5.54332 2.76227 8.7723H3.51227Z" fill="#F3F2ED"/>
</svg>